<?xml version="1.0" encoding="utf-8"?>
<!-- Generator: Adobe Illustrator 19.1.0, SVG Export Plug-In . SVG Version: 6.00 Build 0)  -->
<svg version="1.1" id="_x2014_ÎÓÈ_x5F_1" xmlns="http://www.w3.org/2000/svg" xmlns:xlink="http://www.w3.org/1999/xlink"
	 x="0px" y="0px" width="44.5px" height="12.2px" viewBox="0 0 44.5 12.2" style="enable-background:new 0 0 44.5 12.2;"
	 xml:space="preserve">
<style type="text/css">
	.st0{fill:#FFFFFF;}
</style>
<g>
	<g>
		<g>
			<path class="st0" d="M34.9,6.5c0.3-0.4,0.7-1.1,0.3-1.5c-0.1,0.3-0.3,0.5-0.5,0.7c-1,0.8-2.5,0.5-3.7,0c0.2,0.1,0.3,0.1,0.5,0.1
				c1.5,0.4,3.5-0.1,3.4-2.1c-0.1-1.3-1.8-2-2.9-1.3c-0.3,0.2-0.7,1-0.1,0.7c0.3-0.2,0.6-0.5,1.1-0.2c-0.2,0-0.4,0.1-0.5,0.3
				c0.7,0.4,0.6,1.2,0.1,1.8c0.1-0.2,0.1-0.5,0-0.6c-0.1,0.2-0.2,0.4-0.4,0.5c0.2-0.4,0.2-0.9-0.1-1.2c0,0.4-1,0.8-1.3,0.9
				c-0.6,0.1-1.2,0-1.8-0.2c-0.5-0.1-1-0.3-1.4-0.4c0.7-0.1,1.3-0.3,1.2-1.2C28.7,1.9,27,1.4,27,2.5c0.1-0.3,0.5,0.1,0.2,0.5
				c-0.2,0.3-0.6,0.4-0.9,0.5c-0.5,0.2-1.3,0.2-1.8,0.4c-1.4,0.3-2.8,1.9-2.1,3.3c0.3,0.6,0.7,0.8,1.3,0.9C24,8.2,24.6,8.2,24.9,8
				c0,0-0.1,0-0.1-0.1c-0.3-0.2-0.6-0.2-0.8-0.6c-0.2-0.4-0.2-0.8,0.1-1.1c0.6-0.5,1.6-0.3,2.2-0.1c-0.1-0.4-0.4-0.8-0.9-0.8
				C25.8,5,26.8,5.9,27,6.1c0.5,0.5,0.8,1.1,1.2,1.8c0.3,0.5,0.6,0.9,1,1.2c0.3,0.2,1.1,0.4,1.1,0.8c0.5-0.5,0.4-1.3,0.1-1.8
				c0.2,0.2,0.5,0.3,0.6,0.5c0.8-0.8-1-1.8-1.3-2.4c0.5,0.1,1,0.8,1.5,1.1c0.6,0.3,1.1,0.4,1.7,0.4c1.1,0,2.1-0.3,2.4-1.4
				C35.3,6.5,35.1,6.5,34.9,6.5z M34.1,3.5c0.1,0.2,0.1,0.5,0.1,0.7c0,0.1-0.1,0.1-0.1,0C34.1,4,34.1,3.8,34.1,3.5
				C34.1,3.5,34.1,3.5,34.1,3.5z M33.1,5.1c0.4-0.5,0.6-1,0.3-1.6c0,0,0,0,0,0c0.3,0.6,0.4,1.4-0.2,1.7C33.1,5.3,33,5.1,33.1,5.1z
				 M23.8,7.8c-0.1,0-0.2-0.1-0.3-0.2c0,0,0,0,0,0C23.6,7.6,23.7,7.7,23.8,7.8C23.9,7.7,23.9,7.8,23.8,7.8z M24.1,5.4
				c-0.1,0.2-0.3,0.3-0.4,0.5c0,0-0.1,0-0.1,0C23.7,5.7,23.9,5.6,24.1,5.4C24.1,5.4,24.1,5.4,24.1,5.4z M23.8,5.2
				c-0.3,0.2-0.6,0.5-0.7,0.9c-0.1,0.3,0,0.7,0.1,1.1c0,0.1-0.1,0.1-0.2,0.1c-0.5-0.8-0.2-1.5,0.5-2c0.6-0.4,1.3-0.6,2-0.8
				C24.9,4.5,24.3,4.8,23.8,5.2z M25.8,4.3c-0.1,0-0.1,0-0.2,0.1C25.7,4.3,25.7,4.3,25.8,4.3C25.8,4.2,25.8,4.2,25.8,4.3z M30.9,5.1
				c0.2,0,0.5,0,0.6-0.2c0,0,0.1,0,0.1,0c-0.1,0.3-0.4,0.5-0.7,0.3C30.8,5.2,30.8,5.1,30.9,5.1z M28.2,4.6c0.4,0.2,0.6,0.6,0.8,1
				c0,0,0,0,0,0c-0.2-0.2-0.3-0.3-0.5-0.5c-0.2-0.1-0.3-0.3-0.5-0.4C28.1,4.7,28.1,4.6,28.2,4.6z M27.4,3.6C27.8,3.3,28,2.9,28,2.5
				c0,0,0,0,0,0c0.3,0.5,0,1.1-0.5,1.3C27.4,3.8,27.3,3.7,27.4,3.6z M29.5,8.2c-0.4-0.6-0.8-1.2-1.2-1.8c-0.2-0.3-0.4-0.6-0.6-0.9
				c-0.2-0.3-0.5-0.5-0.7-0.8c-0.1-0.1,0-0.3,0.2-0.2c0.6,0.4,1,1,1.4,1.7C28.9,6.9,29.2,7.6,29.5,8.2C29.5,8.2,29.5,8.3,29.5,8.2z
				 M33.9,6.8c-0.8,0.3-1.6,0.1-2.3-0.1c-0.7-0.3-1.4-0.6-2-1.1c-0.1-0.1,0-0.2,0.1-0.2C31,6.2,32.4,7.1,33.9,6.8
				C33.9,6.8,33.9,6.8,33.9,6.8z"/>
			<path class="st0" d="M44.5,4.8C44.3,5,44,4.9,43.7,4.9c0.2,0,0.2-0.2,0.2-0.4c-0.5,0.1-1,0.1-1.6,0c-0.5-0.1-1-0.5-1.5-0.6
				c0.3,0,1.1-0.1,1.1-0.6c-0.2,0-0.3,0.2-0.5,0.1c0.3-0.1,0.5-0.9,0.3-1.2c-0.2,0.4-0.8,0.4-1.1,0.5c-0.4,0.2-0.8,0.4-1.1,0.7
				c0-0.1,0-0.2,0-0.2c-0.3,0-0.7,0.3-0.9,0.4c-0.4,0.2-0.8,0.3-1.2,0.4C36.5,4.4,36,4.8,36,5.7c0,0,0,0,0.1,0l-0.2,0.2
				c0.8-0.4,2.2-0.4,3.1-0.2c-0.1-0.6-0.6-0.4-0.9-0.7c0.8-0.5,1.4,1.1,1.3,1.7c0.2,0,0.3,0,0.4,0c0,0.3-0.3,0.5-0.6,0.3
				c0.1,0.6,1,0.4,1.4,0.2c0.6-0.4,0.7-1.3,0.4-1.9c-0.8-1.6-3.6-1.2-4.6,0.1l0,0c0.6-1.3,2.9-1.6,4.1-1.1c0.8,0.4,1.4,1.1,2.3,1.3
				C43.2,5.7,44.6,5.7,44.5,4.8z M39.8,4.6c0.3,0.1,0.6,0.6,0.7,0.9c0.1,0.4,0.1,0.8-0.2,1.1c0,0-0.1,0,0,0c0.2-0.4,0.1-0.8-0.1-1.1
				c-0.1-0.3-0.4-0.4-0.5-0.7C39.6,4.7,39.7,4.6,39.8,4.6z M39.4,5.2c0.2,0.1,0.3,0.4,0.3,0.7c0,0-0.1,0.1-0.1,0
				c-0.1-0.2-0.2-0.4-0.3-0.6C39.3,5.2,39.4,5.1,39.4,5.2z M37,5.2C37.1,5,37.3,5,37.5,5.1c0,0,0,0,0,0c-0.1,0-0.1,0.1-0.2,0.1
				c-0.1,0-0.1,0.1-0.2,0.1C37,5.3,37,5.3,37,5.2z M40.5,3.6c-0.1,0-0.1-0.2,0-0.2c0.2,0,0.4-0.1,0.6-0.2c0,0,0.1,0,0.1,0.1
				C40.9,3.5,40.7,3.6,40.5,3.6z M42.7,5c-0.2,0-0.5,0-0.7-0.1c-0.1-0.1,0-0.2,0.1-0.2c0.2,0.1,0.4,0.1,0.6,0.1
				C42.7,4.9,42.7,5,42.7,5z"/>
		</g>
		<g>
			<path class="st0" d="M9.1,6.4c0.3,1.1,1.3,1.4,2.4,1.4c0.6,0,1.1-0.1,1.7-0.4c0.5-0.2,1-1,1.5-1.1c-0.2,0.6-2,1.5-1.3,2.4
				c0.1-0.2,0.4-0.3,0.6-0.5c-0.3,0.5-0.5,1.4,0.1,1.8c0-0.4,0.8-0.6,1.1-0.8c0.5-0.3,0.7-0.8,1-1.2c0.4-0.6,0.6-1.2,1.2-1.8
				C17.7,5.9,18.7,5,19,5.4c-0.5,0-0.8,0.4-0.9,0.8c0.6-0.2,1.6-0.5,2.2,0.1c0.3,0.3,0.4,0.7,0.1,1.1c-0.2,0.4-0.5,0.4-0.8,0.6
				c0,0-0.1,0-0.1,0.1c0.3,0.2,0.9,0.2,1.2,0.1c0.6-0.1,1-0.4,1.3-0.9c0.7-1.5-0.8-3-2.1-3.3c-0.5-0.3-1.3-0.3-1.8-0.4
				c-0.3-0.1-0.7-0.2-0.9-0.5c-0.3-0.4,0.1-0.7,0.2-0.5c0-1.1-1.7-0.6-1.8,0.3c-0.1,0.9,0.5,1.2,1.2,1.2c-0.5,0.1-1,0.3-1.4,0.4
				c-0.6,0.2-1.2,0.3-1.8,0.2c-0.3-0.1-1.3-0.5-1.3-0.9C12,4,12,4.5,12.2,4.9C12,4.8,12,4.5,11.8,4.4c-0.1,0.2-0.1,0.4,0,0.6
				c-0.4-0.6-0.6-1.4,0.1-1.8c-0.1-0.2-0.3-0.3-0.5-0.3c0.4-0.3,0.8,0,1.1,0.2c0.6,0.3,0.2-0.5-0.1-0.7c-1-0.7-2.8,0-2.9,1.3
				c-0.2,1.9,1.8,2.4,3.4,2.1c0.2,0,0.4-0.1,0.5-0.1c-1.2,0.4-2.7,0.8-3.7,0C9.5,5.5,9.3,5.2,9.2,5c-0.4,0.4,0,1.1,0.3,1.5
				C9.4,6.5,9.2,6.5,9.1,6.4z M10.4,3.5c0,0.2,0,0.5,0,0.7c0,0.1-0.1,0.1-0.1,0C10.3,4,10.3,3.7,10.4,3.5
				C10.4,3.5,10.4,3.5,10.4,3.5z M11.3,5.2C10.7,4.8,10.7,4,11,3.5c0,0,0,0,0,0c-0.3,0.6-0.1,1.1,0.3,1.6
				C11.5,5.1,11.4,5.3,11.3,5.2z M20.7,7.7c0.1,0,0.2-0.1,0.3-0.1c0,0,0,0,0,0C20.9,7.7,20.8,7.8,20.7,7.7
				C20.6,7.8,20.6,7.7,20.7,7.7z M20.4,5.4c0.2,0.1,0.4,0.3,0.4,0.5c0,0,0,0.1-0.1,0C20.7,5.8,20.6,5.6,20.4,5.4
				C20.4,5.4,20.4,5.4,20.4,5.4z M19,4.3c0.7,0.2,1.4,0.4,2,0.8c0.7,0.5,1,1.3,0.5,2c-0.1,0.1-0.2,0-0.2-0.1
				c0.1-0.3,0.2-0.7,0.1-1.1c-0.1-0.4-0.4-0.6-0.7-0.9C20.2,4.8,19.6,4.5,19,4.3z M18.7,4.2c0.1,0,0.1,0,0.2,0.1
				C18.8,4.3,18.8,4.3,18.7,4.2C18.7,4.2,18.7,4.2,18.7,4.2z M13.7,5.3c-0.3,0.1-0.7,0-0.7-0.3c0,0,0-0.1,0.1,0
				c0.1,0.2,0.4,0.2,0.6,0.2C13.7,5.1,13.7,5.2,13.7,5.3z M16.4,4.8c-0.1,0.2-0.3,0.3-0.5,0.4c-0.2,0.1-0.3,0.3-0.5,0.5c0,0,0,0,0,0
				c0.2-0.4,0.4-0.8,0.8-1C16.4,4.6,16.4,4.7,16.4,4.8z M17,3.8c-0.5-0.2-0.8-0.8-0.5-1.3c0,0,0,0,0,0c0,0.5,0.1,0.9,0.5,1.1
				C17.2,3.7,17.1,3.8,17,3.8z M15,8.2c0.4-0.6,0.6-1.3,1-2c0.3-0.6,0.7-1.3,1.4-1.7c0.1-0.1,0.3,0.1,0.2,0.2
				c-0.2,0.3-0.5,0.5-0.7,0.8c-0.2,0.3-0.4,0.6-0.6,0.9C15.8,7.1,15.4,7.7,15,8.2C15,8.3,14.9,8.2,15,8.2z M10.6,6.8
				c1.5,0.4,2.9-0.6,4.1-1.4c0.1-0.1,0.2,0.1,0.1,0.2c-0.5,0.5-1.3,0.9-2,1.1C12.2,7,11.3,7.1,10.6,6.8C10.6,6.8,10.6,6.8,10.6,6.8z
				"/>
			<path class="st0" d="M1.8,5.6c0.9-0.2,1.5-0.9,2.3-1.3C5.4,3.7,7.6,4,8.3,5.3l0,0C7.3,4.1,4.5,3.7,3.7,5.3C3.3,5.9,3.4,6.8,4,7.2
				C4.4,7.4,5.3,7.5,5.4,7C5.2,7.2,4.8,7,4.8,6.7c0.1,0.1,0.3,0.1,0.4,0C5.1,6.2,5.8,4.6,6.5,5.1C6.2,5.3,5.7,5.2,5.6,5.7
				c0.9-0.3,2.3-0.2,3.1,0.2L8.5,5.7c0,0,0,0,0.1,0C8.5,4.8,8,4.4,7.2,4.1C6.8,3.9,6.4,3.8,6,3.7C5.7,3.6,5.3,3.3,5,3.3
				c0,0.1,0,0.2,0,0.2C4.7,3.3,4.3,3,4,2.8C3.6,2.7,3.1,2.6,2.8,2.3c-0.2,0.3,0,1.1,0.3,1.2c-0.2,0-0.3-0.1-0.5-0.1
				C2.5,3.9,3.3,4,3.7,3.9C3.2,4,2.7,4.4,2.2,4.5c-0.5,0.1-1.1,0.1-1.6,0c0,0.2,0,0.4,0.2,0.4C0.5,4.9,0.2,5,0,4.8
				C-0.1,5.7,1.3,5.7,1.8,5.6z M4.8,4.8C4.7,5,4.4,5.2,4.3,5.5C4.1,5.8,4.1,6.2,4.2,6.6c0,0,0,0,0,0C3.9,6.3,3.9,5.9,4,5.5
				c0.1-0.3,0.3-0.8,0.7-0.9C4.8,4.6,4.9,4.7,4.8,4.8z M5.2,5.3C5,5.5,4.9,5.7,4.8,5.9c0,0-0.1,0-0.1,0c0-0.3,0.1-0.5,0.3-0.7
				C5.1,5.1,5.2,5.2,5.2,5.3z M7.4,5.3c-0.1,0-0.1-0.1-0.2-0.1C7.1,5.2,7.1,5.1,7,5.1c0,0,0,0,0,0C7.2,5,7.4,5,7.5,5.2
				C7.5,5.3,7.5,5.3,7.4,5.3z M3.4,3.3C3.4,3.3,3.4,3.2,3.4,3.3C3.6,3.4,3.8,3.4,4,3.4c0.1,0,0.1,0.2,0,0.2C3.8,3.6,3.6,3.5,3.4,3.3
				z M1.8,4.9c0.2,0,0.4-0.1,0.6-0.1c0.1,0,0.2,0.1,0.1,0.2C2.3,5,2.1,5,1.8,5C1.8,5,1.8,4.9,1.8,4.9z"/>
		</g>
	</g>
</g>
</svg>
