<?xml version="1.0" standalone="no"?>
<!DOCTYPE svg PUBLIC "-//W3C//DTD SVG 20010904//EN"
 "http://www.w3.org/TR/2001/REC-SVG-20010904/DTD/svg10.dtd">
<svg version="1.0" xmlns="http://www.w3.org/2000/svg"
 width="500.000000pt" height="500.000000pt" viewBox="0 0 500.000000 500.000000"
 preserveAspectRatio="xMidYMid meet">
<metadata>
Created by potrace 1.11, written by Peter Selinger 2001-2013
</metadata>
<g transform="translate(0.000000,500.000000) scale(0.100000,-0.100000)"
fill="#000000" stroke="none">
<path d="M1920 3765 l0 -165 185 0 185 0 0 165 0 165 -185 0 -185 0 0 -165z"/>
<path d="M1920 3495 l0 -35 185 0 185 0 0 35 0 35 -185 0 -185 0 0 -35z"/>
<path d="M1940 3184 c0 -52 8 -44 -170 -191 -52 -43 -100 -90 -107 -103 -18
-36 -19 -2060 -1 -2078 17 -17 869 -17 886 0 9 9 12 252 12 1032 0 989 -1
1022 -19 1052 -11 18 -76 78 -145 133 l-126 102 0 49 0 50 -165 0 -165 0 0
-46z m233 -764 c284 0 327 -2 327 -15 0 -13 -49 -15 -380 -15 l-380 0 0 21 c0
20 4 21 53 15 28 -3 199 -6 380 -6z m327 -530 l0 -380 -380 0 -380 0 0 380 0
380 380 0 380 0 0 -380z m0 -480 l0 -50 -334 0 c-183 0 -354 -3 -380 -6 l-46
-7 0 57 0 56 380 0 380 0 0 -50z"/>
<path d="M3270 2194 c-160 -54 -307 -57 -435 -8 -13 5 -15 -7 -15 -82 1 -242
97 -490 228 -589 56 -43 140 -70 190 -60 101 19 197 107 262 240 57 118 81
218 87 371 l6 131 -48 17 c-77 26 -155 20 -275 -20z"/>
<path d="M230 259 c0 -6 13 -24 29 -40 l29 -29 2222 0 2222 0 29 29 c39 39 37
56 -4 31 -32 -20 -56 -20 -2247 -20 -2191 0 -2215 0 -2247 20 -18 11 -33 15
-33 9z"/>
</g>
</svg>
