<?xml version="1.0" encoding="utf-8"?>
<!-- Generator: Adobe Illustrator 19.1.0, SVG Export Plug-In . SVG Version: 6.00 Build 0)  -->
<svg version="1.1" id="Layer_1" xmlns="http://www.w3.org/2000/svg" xmlns:xlink="http://www.w3.org/1999/xlink" x="0px" y="0px"
	 width="88.6px" height="51.9px" viewBox="-351 281.1 88.6 51.9" style="enable-background:new -351 281.1 88.6 51.9;"
	 xml:space="preserve">
<style type="text/css">
	.st0{fill:#1F65AA;}
	.st1{font-family:'CenturyGothic';}
	.st2{font-size:12px;}
	.st3{font-size:4.5px;}
	.st4{font-family:'MyriadPro-It';}
	.st5{font-size:11px;}
	.st6{font-family:'BodoniCyrillic';}
	.st7{font-size:16px;}
</style>
<g>
	<g>
		<path class="st0" d="M-327,312.6c0.9,0.8,2.2,1.1,3.4,1c1.3-0.1,2.5-0.7,3.5-1.4c1.2-0.8,2.2-1.8,3.2-2.8c0.1-0.1,0.3-0.3,0.4-0.4
			c1.2,0.9,2.5,1.9,3.8,2.8c-0.1,0.4-0.2,0.8,0,1.1c0.3,0.4,1,0.1,1.3-0.1c0.1,0,0.2-0.1,0.3-0.2c0.2,0.1,0.5,0.2,0.7,0.3
			c1.1,0.4,2.3,0.5,3.5,0.1c1.1-0.4,2-1.1,2.6-2c0.7-0.9,1.1-2.1,1.1-3.3c0-1.1-0.6-2.2-1.8-2.3c-1.1-0.2-2.3,0.3-3.3,0.9
			c-1.2,0.7-2.2,1.7-3,2.8c-0.5,0.6-0.9,1.3-1.3,2c-0.1,0.2-0.2,0.4-0.2,0.6c-1.1-0.7-2.1-1.5-3.2-2.3c-0.2-0.2-0.4-0.3-0.6-0.5
			c0.8-0.9,1.6-1.8,2.5-2.7c1.7-1.8,3.8-4,6.4-4.3c0.9-0.1,1.9,0,2.7,0.5c0.9,0.5,1.4,1.4,1.6,2.3l0,0c-0.2-1-0.7-1.9-1.6-2.4
			c-0.9-0.6-2-0.7-3-0.5c-2.6,0.3-4.6,2.4-6.2,4.2c-0.8,0.9-1.7,1.9-2.5,2.8c-0.9-0.6-1.7-1.2-2.7-1.7c-1.2-0.6-2.5-1.1-3.9-1
			c-1.3,0.1-2.6,0.6-3.5,1.5C-328.2,308.9-328.6,311.2-327,312.6z M-312.7,312.7c-0.2-0.3-0.1-0.7,0-0.9v-0.1c0.5,0.3,1,0.6,1.5,0.8
			C-311.6,312.8-312.4,313.2-312.7,312.7z M-312.4,310.8c0.3-0.6,0.7-1.1,1.1-1.6c0.9-1,2-2,3.2-2.7c1-0.6,2.2-1.1,3.3-0.8
			c1.3,0.4,1.4,2.1,1.2,3.2c-0.2,1.2-1,2.3-1.9,3.1c-1,0.8-2.2,1.2-3.5,1.1c-0.7-0.1-1.5-0.3-2.2-0.6c0.6-0.4,1-0.9,1.5-1.4
			c0,0,0-0.1,0,0c-0.4,0.5-0.9,1-1.4,1.4c0,0,0,0-0.1,0c-0.5-0.2-1-0.5-1.5-0.8l0,0C-312.6,311.3-312.5,311.1-312.4,310.8z
			 M-325.2,306.5c2.9-1.3,5.9,0.4,8.2,2c0.1,0.1,0.2,0.1,0.3,0.2c-1.1,1.2-2.2,2.3-3.5,3.3c-1.1,0.8-2.4,1.4-3.8,1.5
			c-1.3,0-2.7-0.4-3.4-1.5c-0.6-0.9-0.6-2-0.2-3C-327.3,307.9-326.4,307-325.2,306.5z"/>
		<path class="st0" d="M-333.1,308.2c0.9,0.9,2.2,1.5,3.5,1.5c1.4,0.1,2.7-0.4,3.9-1c0.9-0.5,1.8-1.1,2.7-1.7
			c0.8,0.9,1.7,1.9,2.5,2.8c1.7,1.8,3.7,3.9,6.2,4.2c1,0.1,2.1,0,3-0.5c0.9-0.6,1.4-1.4,1.6-2.4l0,0c-0.2,0.9-0.8,1.8-1.6,2.3
			c-0.8,0.5-1.7,0.6-2.7,0.5c-2.6-0.3-4.7-2.4-6.4-4.3c-0.8-0.9-1.6-1.8-2.5-2.7c0.2-0.1,0.4-0.3,0.6-0.5c1-0.8,2-1.6,3.2-2.3
			c0.1,0.2,0.2,0.5,0.2,0.6c0.3,0.7,0.8,1.4,1.3,2c0.8,1.1,1.8,2.1,3,2.8c1,0.6,2.1,1.1,3.3,0.9c1.2-0.2,1.8-1.2,1.8-2.3
			c0-1.2-0.4-2.3-1.1-3.3c-0.7-0.9-1.6-1.6-2.6-2c-1.2-0.4-2.3-0.3-3.5,0.1c-0.2,0.1-0.5,0.2-0.7,0.3c-0.1-0.1-0.2-0.1-0.3-0.2
			c-0.3-0.2-1.1-0.5-1.3-0.1c-0.2,0.3-0.2,0.7,0,1.1c-1.3,0.8-2.5,1.8-3.8,2.8c-0.1-0.1-0.3-0.3-0.4-0.4c-1-1-2-2-3.2-2.8
			c-1.1-0.8-2.2-1.3-3.5-1.4c-1.2-0.1-2.5,0.2-3.4,1C-334.8,304.5-334.5,306.8-333.1,308.2z M-317.5,303.2c-0.5,0.2-1,0.5-1.5,0.8
			v-0.1c-0.1-0.3-0.1-0.7,0-0.9C-318.7,302.5-317.9,302.9-317.5,303.2z M-319,304.1L-319,304.1c0.5-0.3,1-0.6,1.6-0.9c0,0,0,0,0.1,0
			c0.6,0.4,1,0.9,1.4,1.4c0,0,0.1,0,0,0c-0.4-0.5-0.9-1.1-1.5-1.4c0.7-0.3,1.4-0.6,2.2-0.6c1.3-0.1,2.5,0.3,3.5,1.1
			c1,0.8,1.7,1.9,1.9,3.1c0.2,1.1,0.1,2.8-1.2,3.2c-1.1,0.3-2.4-0.2-3.3-0.8c-1.2-0.7-2.2-1.7-3.2-2.7c-0.4-0.5-0.8-1-1.1-1.6
			C-318.8,304.6-318.9,304.4-319,304.1z M-334,306.7c-0.4-1-0.4-2.1,0.2-3c0.8-1.1,2.2-1.5,3.4-1.5c1.4,0,2.7,0.6,3.8,1.5
			c1.3,1,2.4,2.1,3.5,3.3c-0.1,0.1-0.2,0.1-0.3,0.2c-2.3,1.7-5.3,3.3-8.2,2C-332.7,308.7-333.6,307.9-334,306.7z"/>
	</g>
	<g>
		<path class="st0" d="M-286,303.1c-0.9-0.8-2.2-1.1-3.4-1c-1.3,0.1-2.5,0.7-3.5,1.4c-1.2,0.9-2.3,1.9-3.2,2.9
			c-0.1,0.1-0.3,0.3-0.4,0.4c-1.2-0.9-2.5-1.9-3.8-2.8c0.1-0.4,0.2-0.8,0-1.1c-0.3-0.4-1-0.1-1.3,0.1c-0.1,0-0.2,0.1-0.3,0.2
			c-0.2-0.1-0.5-0.2-0.7-0.3c-1.1-0.4-2.3-0.5-3.5-0.1c-1.1,0.4-2,1.1-2.6,2c-0.7,0.9-1.1,2.1-1.1,3.3c0,1.2,0.6,2.2,1.8,2.3
			c1.1,0.2,2.3-0.3,3.3-0.9c1.2-0.7,2.2-1.7,3-2.8c0.5-0.6,0.9-1.3,1.3-2c0.1-0.2,0.2-0.4,0.2-0.6c1.1,0.7,2.1,1.5,3.2,2.3
			c0.2,0.2,0.4,0.3,0.6,0.5c-0.8,0.9-1.6,1.8-2.5,2.7c-1.7,1.8-3.8,4-6.4,4.3c-0.9,0.1-1.9,0-2.7-0.5c-0.9-0.5-1.4-1.4-1.6-2.3l0,0
			c0.2,1,0.7,1.9,1.6,2.4c0.9,0.6,2,0.7,3,0.5c2.6-0.3,4.6-2.4,6.2-4.2c0.8-0.9,1.7-1.9,2.5-2.8c0.9,0.6,1.7,1.2,2.7,1.7
			c1.2,0.6,2.5,1.1,3.9,1c1.3-0.1,2.6-0.6,3.5-1.5C-284.9,306.8-284.5,304.5-286,303.1z M-300.4,303c0.2,0.3,0.1,0.7,0,0.9v0.1
			c-0.5-0.3-1-0.6-1.5-0.8C-301.5,302.9-300.7,302.5-300.4,303z M-300.7,304.9c-0.3,0.6-0.7,1.1-1.1,1.6c-0.9,1-2,2-3.2,2.7
			c-1,0.6-2.2,1.1-3.3,0.8c-1.3-0.4-1.4-2.1-1.2-3.2c0.2-1.2,1-2.3,1.9-3.1c1-0.8,2.2-1.2,3.5-1.1c0.7,0.1,1.5,0.3,2.2,0.6
			c-0.6,0.4-1,0.9-1.5,1.4c0,0,0,0.1,0,0c0.4-0.5,0.9-1,1.4-1.4c0,0,0,0,0.1,0c0.5,0.2,1,0.5,1.5,0.8l0,0
			C-300.4,304.4-300.6,304.6-300.7,304.9z M-287.8,309.2c-2.9,1.3-5.9-0.4-8.2-2c-0.1-0.1-0.2-0.1-0.3-0.2c1.1-1.2,2.2-2.3,3.5-3.3
			c1.1-0.8,2.4-1.4,3.8-1.5c1.3,0,2.7,0.4,3.4,1.5c0.6,0.9,0.6,2,0.2,3C-285.8,307.9-286.7,308.7-287.8,309.2z"/>
		<path class="st0" d="M-280,307.5c-0.9-0.9-2.2-1.5-3.5-1.5c-1.4-0.1-2.7,0.4-3.9,1c-0.9,0.5-1.8,1.1-2.7,1.7
			c-0.8-0.9-1.7-1.9-2.5-2.8c-1.7-1.8-3.7-3.9-6.2-4.2c-1-0.1-2.1,0-3,0.5c-0.9,0.6-1.4,1.4-1.6,2.4l0,0c0.2-0.9,0.8-1.8,1.6-2.3
			c0.8-0.5,1.7-0.6,2.7-0.5c2.6,0.3,4.7,2.4,6.4,4.3c0.8,0.9,1.6,1.8,2.5,2.7c-0.2,0.1-0.4,0.3-0.6,0.5c-1,0.8-2,1.6-3.2,2.3
			c-0.1-0.2-0.2-0.5-0.2-0.6c-0.3-0.7-0.8-1.4-1.3-2c-0.8-1.1-1.8-2.1-3-2.8c-1-0.6-2.1-1.1-3.3-0.9c-1.2,0.2-1.8,1.2-1.8,2.3
			c0,1.2,0.4,2.3,1.1,3.3c0.7,0.9,1.6,1.6,2.6,2c1.2,0.4,2.3,0.3,3.5-0.1c0.2-0.1,0.5-0.2,0.7-0.3c0.1,0.1,0.2,0.1,0.3,0.2
			c0.3,0.2,1.1,0.5,1.3,0.1c0.2-0.3,0.2-0.7,0-1.1c1.3-0.8,2.5-1.8,3.8-2.8c0.1,0.1,0.3,0.3,0.4,0.4c1,1,2,2,3.2,2.8
			c1.1,0.8,2.2,1.3,3.5,1.4c1.2,0.1,2.5-0.2,3.4-1C-278.2,311.2-278.6,308.9-280,307.5z M-295.6,312.5c0.5-0.2,1-0.5,1.5-0.8v0.1
			c0.1,0.3,0.1,0.7,0,0.9C-294.4,313.2-295.2,312.8-295.6,312.5z M-294.1,311.6L-294.1,311.6c-0.5,0.3-1,0.6-1.6,0.9c0,0,0,0-0.1,0
			c-0.6-0.4-1-0.9-1.4-1.4c0,0-0.1,0,0,0c0.4,0.5,0.9,1.1,1.5,1.4c-0.7,0.3-1.4,0.6-2.2,0.6c-1.3,0.1-2.5-0.3-3.5-1.1
			c-1-0.8-1.7-1.9-1.9-3.1c-0.2-1.1-0.1-2.8,1.2-3.2c1.1-0.3,2.4,0.2,3.3,0.8c1.2,0.7,2.2,1.7,3.2,2.7c0.4,0.5,0.8,1,1.1,1.6
			C-294.3,311.1-294.1,311.3-294.1,311.6z M-279,309c0.4,1,0.4,2.1-0.2,3c-0.8,1.1-2.2,1.5-3.4,1.5c-1.4,0-2.7-0.6-3.8-1.5
			c-1.3-1-2.4-2.1-3.5-3.3c0.1-0.1,0.2-0.1,0.3-0.2c2.3-1.7,5.3-3.3,8.2-2C-280.4,307-279.5,307.9-279,309z"/>
	</g>
</g>
<text transform="matrix(1 0 0 1 -315.615 327.4904)" class="st0 st1 st2">750</text>
<text transform="matrix(1 0 0 1 -316.0835 331)" class="st0 st1 st3">5 литров</text>
<text transform="matrix(1 0 0 1 -296.5423 328.7046)" class="st0 st4 st5">р.</text>
<text transform="matrix(1 0 0 1 -332.3741 294.9417)" class="st0 st6 st7">СПИРТ</text>
</svg>
