<?xml version="1.0" encoding="utf-8"?>
<!-- Generator: Adobe Illustrator 19.1.0, SVG Export Plug-In . SVG Version: 6.00 Build 0)  -->
<svg version="1.1" id="Objects" xmlns="http://www.w3.org/2000/svg" xmlns:xlink="http://www.w3.org/1999/xlink" x="0px" y="0px"
	 width="265.5px" height="43.6px" viewBox="0 0 265.5 43.6" style="enable-background:new 0 0 265.5 43.6;" xml:space="preserve">
<style type="text/css">
	.st0{fill:#363649;}
</style>
<g>
	<g>
		<g>
			<g>
				<g>
					<g>
						<path class="st0" d="M234.4,31.4c-13.1-11.4-30.7-12.9-46.7-8c-10.1,3.1-20.2,7.7-30.9,7.2c-5.5-0.3-11.2-2-15.4-5.7
							c-2.8-2.5-5-6.1-5-9.9c0-2.9,1.2-5.2,3.6-6.8c2.5-2,4.1-1,4.9,2.8c0-0.8-1.2-1-1.4-0.2c-0.6,3,2.1,5.5,5,3.7
							c3.3-2,1.7-6.6-0.9-8.3c-3.6-2.4-8.5-0.6-11.1,2.5c-3.5,4.4-2.1,10.7,1,14.9c9.4,12.9,27.8,9.3,40.6,5
							c9.3-3.1,18.5-6.6,28.4-6.3c10.1,0.3,19.1,4.2,27.2,9.9C234.3,32.4,234.8,31.7,234.4,31.4L234.4,31.4z"/>
					</g>
					<g>
						<path class="st0" d="M204.5,38.1c-2.8-3.3-7.5,1.4-3.9,4.4c5,4.1,8.3-4.1,5.8-8c-5.2-8.1-17.3-5.1-24.4-2.4
							c-7.3,2.7-15,5.9-22.8,3.3c-4.8-1.6-9-5.9-9-11.2c0-2.7,1.6-5.7,3.7-7.3c1.4-0.9,2.8-1.3,4.4-1c2.7-0.6,3.6,0.9,2.6,4.5
							c-0.3-0.5-1.3-0.4-1.2,0.3c0.5,4.7,7.4,2.3,5.8-2.5c-2.5-7.5-13.3-4.6-16.1,0.9c-4.4,8.7,3.6,17.2,11.8,18.8
							c6.3,1.3,12.6-0.6,18.5-2.8c3.3-1.2,6.6-2.7,10-3.4c2.8-0.6,5.9-0.8,8.7-0.2c1.1,0.4,2.1,0.8,3.2,1.2c2.7,1,3.6,3,2.4,5.9
							C204.3,39.1,204.9,38.6,204.5,38.1L204.5,38.1z"/>
					</g>
				</g>
				<g>
					<g>
						<path class="st0" d="M31.7,32.1c8.2-5.7,17.1-9.6,27.2-9.9c9.6-0.3,18.5,3,27.4,5.9c13.1,4.3,31.9,8.6,41.6-4.7
							c3.1-4.2,4.5-10.4,1-14.9c-2.4-3-6.9-4.7-10.4-2.8c-3,1.5-5.1,6.4-1.5,8.6c2.9,1.8,5.6-0.7,5-3.7c-0.2-0.8-1.4-0.6-1.4,0.2
							c0.8-3.9,2.5-4.8,4.9-2.8c2.4,1.6,3.6,3.8,3.6,6.8c0,3.9-2.2,7.5-5,10c-4.1,3.7-9.9,5.4-15.3,5.7c-10.8,0.6-20.9-4.1-30.9-7.2
							c-16.1-4.9-33.7-3.3-46.7,8C30.8,31.7,31.3,32.4,31.7,32.1L31.7,32.1z"/>
					</g>
					<g>
						<path class="st0" d="M61.7,38.7c-1.1-2.4-0.7-4.1,1.2-5c1.2-1.1,2.7-1.8,4.4-2.1c2.3-0.6,4.7-0.4,7-0.1
							c3.8,0.6,7.2,2,10.8,3.3c5.9,2.3,12.2,4.4,18.7,3.4c8.6-1.4,17-9.9,12.6-19c-2.7-5.6-12.6-8.1-15.8-1.6c-2.6,5.2,5,8,5.5,3.2
							c0.1-0.7-0.9-0.8-1.2-0.3c0.2-1.5,0.5-3,0.7-4.5c1.8-0.5,3.5-0.4,5.1,0.4c2.8,1.4,4.9,4.6,4.9,7.8c0,4.9-3.4,8.6-7.6,10.6
							c-7.7,3.6-15.9,0.5-23.2-2.3c-7.5-2.8-19.9-6.5-25.4,2c-2.5,3.9,0.6,11.9,5.7,8.1c3.8-2.9-0.9-7.8-3.8-4.5
							C60.7,38.6,61.2,39.1,61.7,38.7L61.7,38.7z"/>
					</g>
				</g>
			</g>
			<g>
				<g>
					<g>
						<path class="st0" d="M99.8,12.3C86.4,28,64.5,18.7,47.6,16.4c-9.7-1.3-19.5-1.6-29.2-0.6c-5.6,0.6-12.7,1.2-16.5,6
							c-5.4,6.8,2.2,20.3,10.7,14.5c7.7-5.2-4.3-12.2-4.7-4.7c0,0.7,1,0.8,1.2,0.2c1,4.9-0.8,5.4-5.4,1.4c-2.9-3.6-2.9-7.2,0-10.8
							c1.8-2,4.6-2.9,7-3.6c5.3-1.4,11.1-1.7,16.6-1.8c11.2-0.3,22.2,1.2,33.1,3.4c13.5,2.8,31.1,5.8,40.2-7.5
							C100.9,12.5,100.2,11.9,99.8,12.3L99.8,12.3z"/>
					</g>
					<g>
						<path class="st0" d="M26.6,24.2c-0.6,3.2-2,3.5-4.2,0.8c-2.5-0.6-3.6-2.1-3.3-4.6c-0.6-3.3,0.1-5.5,2.6-7.8
							c4-3.8,10-4.1,15.1-3.1c6.5,1.3,12.4,4.6,18.8,6c6.6,1.4,18.1,0.8,19.8-7.6c1.1-5.5-6.4-11.3-9.6-5.2
							c-2.5,4.8,4.6,8.4,6.7,3.5c0.3-0.7-0.6-1.7-1.2-0.9c2.8,0.5,3,1.7,0.5,3.7c-0.3,1.5-1.1,2.5-2.3,3.1c-1.8,1.4-4.8,1.8-7.1,1.9
							c-3.8,0.1-7.5-0.8-11.1-1.9c-6-1.9-11.9-4.8-18.4-5C25.1,6.8,14.5,12.3,17,21.6c1.2,4.7,11.6,11.4,13.6,3.7
							c1.2-4.4-5.3-5.6-4.5-1C26.2,24.5,26.6,24.4,26.6,24.2L26.6,24.2z"/>
					</g>
				</g>
				<g>
					<g>
						<path class="st0" d="M164.9,12.9c9.1,13.3,26.7,10.3,40.2,7.5c10.9-2.2,21.9-3.7,33.1-3.4c5.5,0.2,11.3,0.4,16.6,1.8
							c2.5,0.7,5.2,1.6,7.1,3.6c2.8,3.6,2.8,7.2-0.1,10.8c-4.6,4-6.3,3.5-5.4-1.4c0.1,0.6,1.2,0.5,1.2-0.1
							c-0.3-7.6-12.3-0.5-4.7,4.7c8.5,5.8,16.2-7.7,10.7-14.5c-3.8-4.8-10.9-5.4-16.5-6c-9.7-1-19.5-0.7-29.2,0.6
							c-17,2.2-38.9,11.6-52.3-4.1C165.4,11.9,164.6,12.5,164.9,12.9L164.9,12.9z"/>
					</g>
					<g>
						<path class="st0" d="M239.4,24.2c0.8-4.6-5.7-3.4-4.5,0.9c2.1,7.7,12.4,1.3,13.7-3.6c2.3-8.8-7.3-14.5-14.8-14.6
							c-6.5-0.1-12.4,2.6-18.5,4.6c-3.6,1.2-7.3,2.3-11.1,2.3c-2.5,0-5.1-0.4-7.4-1.5c-0.8-0.5-1.6-1-2.4-1.5c-2.9-2.1-2.9-4,0-5.5
							c-0.6-0.8-1.7-0.1-1.3,0.8c2.1,4.8,9,1.3,6.7-3.4c-2.7-5.6-10-1.3-9.8,3.8c0.3,9,12.5,10.3,19.1,9c6.8-1.3,12.9-4.9,19.7-6.2
							c4.8-0.9,9.8-0.7,13.9,2.2c1.8,1.3,4,3.5,4.2,6c-0.3,1.9-0.6,3.7-0.9,5.6c-2.5,4.3-4.9,4.6-7.1,1
							C239,24.4,239.4,24.5,239.4,24.2L239.4,24.2z"/>
					</g>
				</g>
			</g>
		</g>
	</g>
</g>
</svg>
