<?xml version="1.0" encoding="utf-8"?>
<!-- Generator: Adobe Illustrator 19.1.0, SVG Export Plug-In . SVG Version: 6.00 Build 0)  -->
<svg version="1.1" id="Objects" xmlns="http://www.w3.org/2000/svg" xmlns:xlink="http://www.w3.org/1999/xlink" x="0px" y="0px"
	 width="340.9px" height="87.8px" viewBox="0 0 340.9 87.8" style="enable-background:new 0 0 340.9 87.8;" xml:space="preserve">
<style type="text/css">
	.st0{fill:#93A5AA;}
</style>
<g>
	<g>
		<g>
			<g>
				<g>
					<path class="st0" d="M170.9,32.4c-0.9,7.5,0.1,15,3.6,21.7c3.2,6.2,8,9.8,12.9,14.4c3.1,2.8,6,7.6,3.5,11.7
						c-1.9,3.2-6.2,4.2-9.7,3.6c-3.7-0.7-7.3-3.4-8.1-7.2c-0.7-3.5,1.1-7.5,4.9-8.1c8.6-1.3,6.9,11.4,0.4,9
						c-0.6-0.2-0.6-1.3,0.2-1.3c1.4,0.3,2.7-0.2,3.7-1.6c-0.3-4.4-1.8-5.5-4.6-3.4c-2.7,0.4-3.7,2.1-2.9,5.1
						c0.4,1.5,1.1,2.7,2.3,3.5c3.1,2.8,9.8,3.7,12.3-0.5c4.1-6.7-8.5-13.6-11.8-17.8c-6.5-8.2-9.4-19-7.4-29.2
						C170.2,31.9,170.9,31.9,170.9,32.4L170.9,32.4z"/>
				</g>
				<g>
					<path class="st0" d="M171.7,33.5c-2.3,11.7,3.6,22.3,12.6,29.5c4.1,3.3,8.7,5.9,13.3,8.3c3.4,1.7,7.1,3.5,8.8,7.1
						c1.8,3.9-0.2,10.3-5.4,9.3c-3.8-0.7-4.7-7.1-0.5-7.7c0.7-0.1,1.2,0.8,0.5,1.2c3.8,3.1,5.1,3,4-0.3c0.1-1.6-0.5-3-1.8-4
						c-1.4-1.4-3.3-2.4-5-3.3c-2.3-1.2-4.7-2.4-6.9-3.8c-4.8-2.9-9.3-6.2-13-10.4c-6.2-7.1-9.8-16.7-7.2-26.1
						C171.1,32.9,171.8,33.1,171.7,33.5L171.7,33.5z"/>
				</g>
				<g>
					<path class="st0" d="M289.9,30.8c3.8-0.8,5.2,2.4,5.3-2.2c0-1.9-1.4-4.1-2.9-5.3c-2.8-2.1-7.4-1-9.6,1.3
						c-4.9,5-2.5,12.8,2.2,16.8c3.7,3.1,9.2,4.5,13.8,2.7c5.6-2.3,7.7-8.3,7.4-14c-0.5-9.8-7.9-18.2-17.5-20
						c-10.7-2-19.9,4.5-25.8,12.9c-9.7,13.7-13.6,30.6-27.3,41.4c-11.2,8.9-27,11.1-40.3,5.6c-14.7-6.1-24.1-21.2-24.3-37
						c0-0.9,1.4-0.9,1.4,0c0.2,28.6,31.1,47.9,56.7,34c12.1-6.6,19-18.9,24.8-30.8c5-10.1,10.7-21.3,21.6-26.1
						c8.9-3.9,19.9-1.6,26.4,5.7c5.9,6.6,8.6,17.8,3.1,25.5C300,48,290,47.7,284,42.6c-6-5.1-8.2-16.2-0.1-20.7
						c7.1-4,17,3.9,11.3,11.3c-1.5,2-5.5,3.7-7.4,1.2c-1.5-1.9-0.2-4.3,2-4.5C290.3,29.8,290.4,30.7,289.9,30.8L289.9,30.8z"/>
				</g>
				<g>
					<path class="st0" d="M211,72.5c15.6,4.2,27.6-6.4,37.5-17c4.8-5.2,14.7-14.7,21.5-6.5c3.7,4.5-0.7,13.1-6.5,9.4
						c-5.4-3.4,1-10.5,4.4-6.1c0.4,0.5-0.4,1.1-0.8,0.8c2.5,3.3,3.1,3,1.9-0.6c0.4-2.1-0.4-3.5-2.3-4.3c-2.7-1.4-6-0.7-8.6,0.6
						c-2.7,1.4-4.9,3.7-7,5.9c-4,4.2-7.9,8.5-12.4,12.1c-7.8,6-18.3,10.1-27.9,6.1C210.6,72.8,210.8,72.5,211,72.5L211,72.5z"/>
				</g>
				<g>
					<path class="st0" d="M299.9,13.8c7.1,8.5,16.4,17.9,28.7,14.8c7.6-1.9,13-10.4,6.3-16.9c-3.1-3-8.7-3.5-11.7-0.1
						c-1.1,1.2-1.8,3.2-1.7,4.9c-0.1,2,0.7,3.4,2.4,4.2c2.4,2.9,4.1,1.4,4.9-4.5c-0.6-0.5,0.2-1.2,0.8-1c2.8,1.4,3.3,5.2,1,7.3
						c-2.6,2.5-7,1.2-9-1.4c-6.6-8.3,5.2-17.2,13.1-12.2c3.8,2.5,5.9,7.1,5.1,11.6c-0.9,5.3-5.6,8.5-10.5,9.7
						c-12.2,2.8-24-6-29.4-16.3C299.6,13.8,299.8,13.6,299.9,13.8L299.9,13.8z"/>
				</g>
				<g>
					<path class="st0" d="M300.2,15.3c2.9,1.5,6,3.4,9.4,2.9c2.3-0.4,4.6-1.9,4.6-4.5c0.2-0.9,0-1.6-0.8-2.1
						c-0.5-1.2-1.3-1.5-2.5-1.1c-1.8,0-2.2,0.3-3.4,1.5c-0.5,0.5-1.2-0.2-0.9-0.7c2.5-5.7,11.1-1.6,8.9,4.1
						c-2.7,7-11.4,3.5-15.6,0.3C299.6,15.5,299.9,15.2,300.2,15.3L300.2,15.3z"/>
				</g>
				<g>
					<path class="st0" d="M248.7,46.4c2.4-11.1-0.9-22.9-9.7-30.4c-10.1-8.5-26.3-8.8-35,1.8c-8.5,10.3-4.2,30.4,11.4,30.4
						c8.2,0,13.7-9.2,10.4-16.5c-1.7-3.8-5.8-6.3-10-4.9c-2.9,1-4.7,3.8-4.1,6.8c0.2,0.6,0.4,1.2,0.7,1.8c2.2,3.7,4.2,2.6,6.3-3.2
						c-0.9-0.6-0.1-2,0.8-1.4c4.3,2.6,2.4,8.6-2.5,8.9c-5.3,0.4-8.4-6-6.5-10.4c2.1-4.9,8.9-5.8,13.1-3.2c5.2,3.3,6.3,10.7,3.9,16
						c-3.2,7-11,9.3-17.9,6.4c-6.1-2.6-10.3-8.7-11.3-15.1C195.6,17.6,211.4,6.2,226,8.5c17.2,2.7,28.6,21.4,23.3,38
						C249.2,47,248.6,46.8,248.7,46.4L248.7,46.4z"/>
				</g>
				<g>
					<path class="st0" d="M209.4,47.6c4.6,1.2,8.2,5.1,8,10c-0.2,4.7-4.2,8.6-9,8.1c-3.8-0.4-7.5-4.6-4.9-8.3c1.9-2.8,6.6-2,6.7,1.6
						c0,0.7-1,0.9-1.3,0.2c-3.7-1.5-5.1-1.1-4.2,1.3c-0.1,1.3,0.5,2.2,1.8,2.8c0.8,0.5,2,0.8,3,0.7c3.2-0.1,5.7-2.6,6.3-5.6
						c0.9-4.8-2.5-8.5-6.6-10.3C208.8,48,209.1,47.5,209.4,47.6L209.4,47.6z"/>
				</g>
				<g>
					<path class="st0" d="M172.6,38.4c-0.5,8.1,3.6,15.9,11.8,18.3c5.5,1.6,12.9-1.8,8.8-8.2c-0.7-1.9-2.2-2.9-4.5-3.1
						c-2.5-0.2-3.7,1-3.5,3.5c-1.5,2.3-0.9,3.7,1.8,4.3c1-0.1,1.8-0.6,2.3-1.4c0.5-0.5,1.3,0,1.1,0.7c-1.3,5.8-9.1,1.1-8.4-3.9
						c1.1-7.4,11-6,13.5-0.4c1.3,2.9,1.2,6.7-1.1,9.1c-2.8,3-7.8,2.4-11.3,1.1c-8.3-3-13-11.4-11.2-20C172,37.9,172.6,38,172.6,38.4
						L172.6,38.4z"/>
				</g>
				<g>
					<path class="st0" d="M205.3,16c-3.7,7.7-13.6,17-23,15.3c-7.7-1.5-10.2-11.9-3-15.9c6-3.3,15.9,3.6,10.2,9.8
						c-4.4,4.7-11.5-2.3-5.8-5.7c0.5-0.3,1,0.4,0.6,0.8c5.6,5.2,6.3,4,2.3-3.5c-1.1-0.3-2.2-0.6-3.3-0.9c-2.9,0-5.8,2.3-6.6,5.2
						c-1.7,6.8,5.9,9.7,11.3,8.3c7.1-1.9,12.6-7.9,16.8-13.5C205.1,15.5,205.4,15.7,205.3,16L205.3,16z"/>
				</g>
				<g>
					<path class="st0" d="M206.2,14.6c-2.1,1-4.7,1.4-6.8,0.2c-1.5-0.9-2.7-2.5-2.5-4.4c0.5-3.9,6.5-4.5,7.3-0.5
						c0.1,0.6-0.8,1.1-1.1,0.5c-0.7-1.2-2.1-2.3-3.5-1.5c-1.4,0.8-1.5,2.4-0.6,3.6c1.6,2.4,4.7,1.7,7.1,1.5
						C206.4,14,206.5,14.5,206.2,14.6L206.2,14.6z"/>
				</g>
				<g>
					<path class="st0" d="M252.3,27.6c-2.9-2.1-4.6-5.5-4.3-9.1C248.6,12,256,7.8,252,0.8c-0.3-0.6,0.4-1.1,0.9-0.7
						c2.8,2.3,2.3,6.1,0.9,9.1c-0.8,1.9-2.2,3.6-3.1,5.5c-2.1,4.4-1.3,8.6,2.1,12.2C253.1,27.3,252.7,27.8,252.3,27.6L252.3,27.6z"
						/>
				</g>
				<g>
					<path class="st0" d="M253.2,0.5c3.7,5,5.4,11.4,4.8,17.6c-0.3,3.7-1.2,9.1-5.5,10.2c-0.7,0.2-1.1-0.8-0.5-1.1
						c8.7-4.6,4.2-20.1,0.9-26.6C252.9,0.5,253.1,0.4,253.2,0.5L253.2,0.5z"/>
				</g>
				<g>
					<path class="st0" d="M312.2,29.5c-1.6,8.7,11.1,15,6.4,23.5c-0.3,0.5-1.1,0.2-0.9-0.4c2.9-9-9.4-14.5-5.9-23.2
						C311.8,29.1,312.2,29.2,312.2,29.5L312.2,29.5z"/>
				</g>
				<g>
					<path class="st0" d="M318.8,52.9c-1.2-3.3,0.3-5.7,1.3-8.9c2.1-7.2-3.8-9.8-8.7-13.2c-0.4-0.3-0.2-1.1,0.4-0.9
						c3.7,1.3,7.6,3.7,9.4,7.4c2.6,5.5-2.5,9.9-1.8,15.5C319.3,53.1,318.9,53.2,318.8,52.9L318.8,52.9z"/>
				</g>
				<g>
					<path class="st0" d="M312.2,31.6c1.7,1.8,3.1,4,4.5,6.2c1.3,2.1,2.8,4.4,3.5,6.8c0.2,0.8-0.8,1.2-1.3,0.5
						c-1.4-2-2.3-4.4-3.5-6.6c-1.2-2.2-2.6-4.2-3.8-6.4C311.3,31.7,311.9,31.2,312.2,31.6L312.2,31.6z"/>
				</g>
				<g>
					<path class="st0" d="M318.7,45.4c1.7-5-0.6-10-5.5-11.9c0.3-0.4,0.6-0.8,0.9-1.2c1.5,2.5,3.2,4.9,4.8,7.4
						c-0.4,0.3-0.9,0.5-1.3,0.8c-1.1-1.9-2.2-3.8-3.3-5.8c-0.4-0.8,0.6-1.5,1.2-0.9c2.1,1.8,3.4,4.1,3.9,6.9c0.1,0.8-1,1.4-1.4,0.6
						c-1.2-2.7-2.9-4.9-5.1-6.9c0.4-0.2,0.9-0.4,1.3-0.6c0.2,2.7,1.3,4.8,3.2,6.7c-0.4,0.4-0.7,0.7-1.1,1.1
						c-1.9-2.3-3.2-4.8-3.9-7.7c-0.2-0.8,1-1.4,1.4-0.6c1.5,3,3,6,4.6,9c-0.4,0.3-0.9,0.5-1.3,0.8c-1.6-3.4-3.1-6.9-4.6-10.4
						c-0.2-0.5,0.1-1.1,0.7-1c5.6,1.5,6.2,7.6,5.9,12.6c-0.5,0-0.9,0-1.4,0c0.2-1.9,0.2-3.7-0.2-5.6c-0.1-0.7,0.7-1,1.1-0.5
						c0.9,1.2,1.1,2.3,0.8,3.8c-0.1,0.5-0.8,0.5-1,0.1c-0.8-1.1-1.5-2.1-2.3-3.2c-0.3-0.4,0.3-0.9,0.7-0.5c0.8,1,1.7,2,2.5,3
						c-0.3,0.1-0.6,0.2-1,0.3c-0.2-0.9-0.4-1.8-0.7-2.8c0.3-0.2,0.7-0.4,1-0.6c0.5,2,0.6,3.9,0.4,5.9c-0.1,0.9-1.4,0.9-1.4,0
						c0.1-4.2,0.2-10.1-4.9-11.3c0.2-0.3,0.5-0.6,0.7-1c1.6,3.4,3.2,6.8,4.8,10.3c0.4,0.9-0.9,1.7-1.3,0.8c-1.5-3-3-6-4.6-9
						c0.5-0.2,0.9-0.4,1.4-0.6c0.7,2.6,1.8,5,3.5,7.1c0.6,0.7-0.4,1.7-1.1,1.1c-2.2-2.2-3.3-4.7-3.7-7.8c-0.1-0.7,0.9-1,1.3-0.6
						c2.3,2,4,4.4,5.3,7.2c-0.5,0.2-0.9,0.4-1.4,0.6c-0.5-2.5-1.6-4.5-3.5-6.2c0.4-0.3,0.8-0.6,1.2-0.9c1.1,1.9,2.2,3.8,3.3,5.8
						c0.5,0.9-0.8,1.6-1.3,0.8c-1.6-2.4-3.2-4.9-4.9-7.3c-0.4-0.6,0.3-1.4,0.9-1.2c6,1.9,8.6,8.2,6,13.8
						C319.4,46.3,318.6,46,318.7,45.4L318.7,45.4z"/>
				</g>
				<g>
					<path class="st0" d="M252.1,25.8c-1.9-3.3-2.2-6.7-1-10.3c0.3-0.9,1.7-0.5,1.4,0.4c-0.7,2.2-0.8,4.1-0.3,6.4
						c0.2,1-1.3,1.4-1.5,0.4c-0.5-2.4-0.5-4.4,0.2-6.8c0.2-0.9,1.6-0.7,1.6,0.2c0,2.4-0.4,4.6-1.1,6.9c-0.2,0.8-1.3,0.8-1.6,0
						c-0.9-2.7-0.7-5.1,0.5-7.7c0.4-0.8,1.4-0.3,1.5,0.4c0.3,2.2-0.1,3.9-1.1,5.8c-0.4,0.6-1.3,0.5-1.5-0.2
						c-0.6-1.9-0.4-7.5,2.9-7.2c3.4,0.3,1.1,7.8,0.8,9.4c-0.2,1-1.7,0.6-1.5-0.4c0.5-2.3,1-4.7,1.6-7c0.2-0.9,1.6-0.7,1.6,0.2
						c0,2.9-0.3,5.5-1.1,8.3c-0.3,1-1.8,0.6-1.6-0.4c0.8-3.2,1.5-6.3,2.3-9.5c0.2-0.9,1.7-0.7,1.6,0.2c-0.3,3.1-0.6,6.2-0.9,9.4
						c-0.5-0.1-1-0.3-1.5-0.4c1.8-4.1,2.3-8.2,1.7-12.6c0.6-0.1,1.1-0.2,1.7-0.2c0.2,4.3-0.1,8.6-0.9,12.8c-0.2,0.9-1.7,0.7-1.6-0.2
						c0.4-4.1,0.4-8.1,0.2-12.1c0.5,0.1,1.1,0.1,1.6,0.2c-0.7,2.2-1.5,4.1-2.8,6c-0.5,0.8-1.6,0.3-1.5-0.6c0.4-2.4,1-4.4,2.1-6.5
						c0.5,0.3,0.9,0.5,1.4,0.8c-1,1.4-2,2.8-3,4.2c-0.5,0.6-1.7,0.3-1.4-0.6c0.8-2.1,1.8-4,3.1-5.8c0.5-0.7,1.7-0.1,1.2,0.7
						c-1,1.7-2,3.4-3,5.1c-0.4,0.6-1.4,0.2-1.2-0.5c0.6-2,1.5-3.6,2.9-5.2c0.4-0.5,1.1,0.1,1,0.6c-0.2,1.2-0.4,2.4-0.6,3.6
						c-0.4-0.1-0.7-0.2-1.1-0.3c0.3-2,0.7-4,1-6c0.1-0.6,1-0.5,1.1,0c0.3,1.1,0.5,2.2,0.8,3.4c-0.4,0.1-0.8,0.2-1.1,0.3
						c-0.2-1.4-0.4-2.7-0.7-4.1c-0.1-0.7,0.9-1,1.1-0.3c0.2,0.6,0.4,1.3,0.6,1.9c-0.4,0.1-0.7,0.1-1.1,0.2c-0.1-0.9-0.1-1.8-0.2-2.7
						c0-0.7,0.9-0.7,1.1-0.2c2.2,6.6,1.9,13.3-0.9,19.7c-0.4-0.2-0.8-0.5-1.2-0.7c1.3-2.5,1.9-4.9,1.9-7.7c0.5,0,1,0,1.5,0
						c-0.3,2.3,0.3,8.9-2.9,9.7c-3.5,0.9-4-3.6-3.8-5.8c0.1-0.8,1.1-1,1.4-0.2c0.6,1.6,1.1,3.3,1.7,4.9c-0.4,0.1-0.9,0.2-1.3,0.4
						c-0.5-1.4-0.9-2.8-1.4-4.2c-0.3-0.8,1-1.2,1.3-0.4c0.5,1.4,1,2.8,1.4,4.2c0.3,0.8-1,1.2-1.3,0.4c-0.6-1.6-1.2-3.3-1.8-4.9
						c0.5-0.1,0.9-0.1,1.4-0.2c-0.5,1.4,0,1.9,1.5,1.3c1.5,0.5,2.1,0.1,1.8-1.3c0.5-1,0.3-2.8,0.5-3.9c0.1-0.9,1.5-1,1.5,0
						c0,3.1-0.6,5.8-2.1,8.5c-0.5,0.8-1.6,0.1-1.2-0.7c2.7-6,3-12.4,1.1-18.6c0.4-0.1,0.7-0.1,1.1-0.2c0.1,0.9,0.1,1.8,0.2,2.7
						c0,0.7-0.9,0.7-1.1,0.2c-0.2-0.6-0.4-1.3-0.6-1.9c0.4-0.1,0.7-0.2,1.1-0.3c0.2,1.4,0.5,2.7,0.7,4.1c0.1,0.7-1,1.1-1.1,0.3
						c-0.3-1.1-0.5-2.2-0.8-3.4c0.4,0,0.7,0,1.1,0c-0.3,2-0.7,4-1,6c-0.1,0.7-1.2,0.4-1.1-0.3c0.2-1.2,0.3-2.4,0.5-3.7
						c0.3,0.2,0.7,0.4,1,0.6c-1.3,1.6-1.9,2.8-2.5,4.7c-0.4-0.2-0.8-0.3-1.2-0.5c1-1.7,1.9-3.4,2.9-5.2c0.4,0.2,0.8,0.5,1.2,0.7
						c-1.2,1.7-2.1,3.5-2.9,5.5c-0.5-0.2-0.9-0.4-1.4-0.6c1-1.4,2-2.8,3-4.2c0.6-0.8,1.8-0.1,1.4,0.8c-1,2-1.6,3.9-2,6.1
						c-0.5-0.2-1-0.4-1.5-0.6c1.2-1.8,2-3.6,2.6-5.6c0.3-0.9,1.5-0.7,1.6,0.2c0.3,4.1,0.2,8.1-0.1,12.1c-0.5-0.1-1.1-0.1-1.6-0.2
						c0.8-4.1,1-8.2,0.7-12.4c-0.1-0.9,1.5-1.2,1.7-0.2c0.8,4.9,0.1,9.4-1.9,13.9c-0.3,0.7-1.6,0.4-1.5-0.4c0.3-3.1,0.6-6.2,0.9-9.4
						c0.5,0.1,1.1,0.1,1.6,0.2c-0.8,3.2-1.5,6.3-2.3,9.5c-0.5-0.1-1-0.3-1.6-0.4c0.7-2.6,1-5.2,1-7.9c0.5,0.1,1,0.1,1.6,0.2
						c-0.5,2.3-1.1,4.7-1.6,7c-0.5-0.1-1-0.3-1.5-0.4c0.3-1.2,1.3-3.7,0.8-4.6c0.3-0.9,0-1-0.8-0.1c-1.2,0.4-1.3,1.2-0.5,2.4
						c-0.5-0.1-1-0.1-1.5-0.2c0.9-1.7,1.1-3.1,0.9-4.9c0.5,0.1,1,0.3,1.5,0.4c-1,2.1-1,4.2-0.4,6.4c-0.5,0-1.1,0-1.6,0
						c0.6-2.1,1-4.2,1-6.5c0.5,0.1,1.1,0.1,1.6,0.2c-0.6,2-0.7,3.8-0.2,5.9c-0.5,0.1-1,0.3-1.5,0.4c-0.5-2.6-0.4-4.7,0.4-7.2
						c0.5,0.1,0.9,0.3,1.4,0.4c-1.2,3.3-1,6.2,0.4,9.4C253.3,25.9,252.5,26.4,252.1,25.8L252.1,25.8z"/>
				</g>
				<g>
					<path class="st0" d="M218.3,51c1.2,1.6,2.6,3,4.1,4.3c1.7,1.4,3.6,2.2,5.3,3.5c0.5,0.3,0.2,1.2-0.4,1c-4-1.1-7.5-5-9.5-8.4
						C217.6,51.1,218.1,50.7,218.3,51L218.3,51z"/>
				</g>
				<g>
					<path class="st0" d="M227.2,59.2c-0.4-2.1-1.3-3.9-2.9-5.3c-1.7-1.3-3.4-1.4-5.3-1.9c-0.6-0.1-0.5-1,0-1.1
						c4.4-1.2,8.9,4.2,8.8,8.2C227.7,59.4,227.3,59.5,227.2,59.2L227.2,59.2z"/>
				</g>
				<g>
					<path class="st0" d="M219.8,51.7c2.7,0.9,4.9,2.7,6.5,5.1c0.4,0.6-0.4,1.3-1,1c-1.8-1.1-3.3-2.4-4.7-3.9
						c-0.4-0.5-0.2-1.3,0.5-1.3c1.9,0.1,3.6,1.1,4.3,2.9c0.2,0.5,0,1.2-0.7,1.2c-1.9-0.2-3.6-1.3-4.5-3.1c-0.3-0.6,0.2-1.2,0.9-1.1
						c1.7,0.2,3,1.2,3.9,2.6c0.3,0.4-0.1,1.1-0.6,1.1c-2-0.1-3.6-1.5-3.8-3.5c-0.1-0.5,0.5-0.8,0.9-0.7c1.4,0.4,2.5,1.1,3.3,2.3
						c0.4,0.5-0.4,1-0.8,0.6c-0.9-0.7-1.8-1.3-2.9-1.6c0.3-0.3,0.6-0.6,0.8-0.8c0.2,1.3,1.1,2.2,2.5,2.3c-0.2,0.4-0.4,0.7-0.6,1.1
						c-0.7-1-1.7-1.7-2.9-1.8c0.2-0.4,0.4-0.8,0.7-1.1c0.6,1.3,1.7,2.1,3.1,2.3c-0.2,0.4-0.4,0.8-0.7,1.2c-0.5-1.2-1.6-2.1-3-2.1
						c0.2-0.4,0.4-0.9,0.5-1.3c1.3,1.4,2.7,2.7,4.3,3.8c-0.3,0.3-0.7,0.6-1,1c-1.3-2.2-3.2-3.8-5.5-5
						C219.1,52.3,219.4,51.6,219.8,51.7L219.8,51.7z"/>
				</g>
				<g>
					<path class="st0" d="M220.6,52.1c1.9,1.2,3.7,2.7,5.4,4.2c0.4,0.3-0.1,0.9-0.5,0.7c-1.9-1.3-3.7-2.6-5.4-4.2
						C219.7,52.4,220.2,51.8,220.6,52.1L220.6,52.1z"/>
				</g>
				<g>
					<path class="st0" d="M224.2,52.9c1.1,1.5,2.2,3,3.3,4.6c0.4,0.5-0.5,1.2-0.9,0.7c-1-1.3-1.7-2.6-2.2-4.2
						c-0.1-0.5,0.5-0.9,0.9-0.5c0.9,0.9,1.3,1.9,1.4,3.2c0,0.5-0.6,0.6-0.9,0.4c-1.8-1.5-3.7-3-5.5-4.4c0.2,0,0.4,0.1,0.6,0.1
						c-0.3,0.2-0.3,0.4-0.2,0.7c0,0.3-0.5,0.6-0.7,0.3c-0.6-0.7-0.3-1.5,0.4-1.9c0.2-0.1,0.5-0.1,0.6,0.1c1.8,1.5,3.7,3,5.5,4.4
						c-0.3,0.1-0.6,0.3-0.9,0.4c-0.1-1-0.4-1.8-1.2-2.5c0.3-0.2,0.6-0.4,0.9-0.5c0.5,1.4,1.2,2.6,2,3.8c-0.3,0.2-0.7,0.4-1,0.6
						c-1-1.6-2.1-3.1-3.1-4.7C223.1,52.9,223.8,52.4,224.2,52.9L224.2,52.9z"/>
				</g>
			</g>
			<g>
				<g>
					<path class="st0" d="M172.6,32.3c1.9,10-0.8,20.6-7,28.7c-3.4,4.5-11.5,8.4-12.7,14c-1.5,6.8,6.3,8.6,10.9,6.3
						c3-1.5,4.4-3.7,4-6.9c0.2-2.8-1.4-4.2-5-4.1c-3.6,3.5-3.1,5.5,1.5,6.1c0.8-0.1,0.8,1,0.2,1.3c-6.5,2.5-8.2-10.1,0.3-9
						c3.4,0.5,5.3,3.8,5.1,7.1c-0.3,4.3-4.2,7.4-8.2,8.2c-3.4,0.7-7.8-0.3-9.7-3.6c-2.3-3.9,0-8.4,3-11.2c5-4.8,10.2-8.4,13.4-14.8
						c3.5-6.8,4.4-14.2,3.6-21.7C171.8,32,172.5,31.9,172.6,32.3L172.6,32.3z"/>
				</g>
				<g>
					<path class="st0" d="M171.7,33.3c2.6,9.3-0.9,19-7.2,26.1c-3.5,4-7.8,7.2-12.4,10c-2.5,1.5-5.1,2.8-7.6,4.2
						c-1.7,0.9-3.6,1.9-5,3.3c-0.5,0.6-1,1.3-1.5,1.9c-2.1,3.8-0.9,4.6,3.6,2.4c-0.6-0.4-0.2-1.3,0.5-1.2c3.9,0.6,3.4,6.5,0,7.6
						c-5.5,1.8-7.9-5.1-6-9.1c1.6-3.4,4.9-5.1,8.1-6.8c4.9-2.5,9.7-5.1,14-8.5c9-7.2,15-17.8,12.7-29.6
						C170.9,33.1,171.6,32.9,171.7,33.3L171.7,33.3z"/>
				</g>
				<g>
					<path class="st0" d="M53,29.9c5.3,0.5,1,8.9-4.4,4.3c-5.8-4.8-0.9-13.3,5.7-13.4c8.9-0.1,12,10.5,8.3,17.3
						c-4,7.2-14.2,11.1-21.5,6.3c-7.7-5.1-7.2-16.6-3.4-23.9c4.5-8.6,14.2-13.4,23.8-12C72.5,10,80,19.5,85,28.7
						c6.3,11.5,10.9,23.8,20.9,32.8c11.7,10.6,29.4,13.3,43.6,6c12.8-6.6,20.8-20.3,20.9-34.5c0-0.9,1.4-0.9,1.4,0
						c-0.1,13.8-7.2,27.1-19,34.4c-12.3,7.5-28.7,7.5-41,0.1c-14.4-8.6-20.1-24.2-27.8-38.1c-4.6-8.3-11-16.6-20.6-19
						C52.8,7.8,41.8,13.5,38,23.6c-1.9,4.9-2.2,11,0.5,15.7c3.2,5.7,10.4,7,16.1,4.3c5.7-2.7,10.1-9.7,7.3-16
						c-1.6-3.6-5.3-6.1-9.3-5.1c-2.1,0.5-4,2-4.7,4.1c-0.1,0.7-0.2,1.4-0.3,2.1c-0.2,3.6,1.6,4.4,5.3,2.2
						C52.3,30.7,52.4,29.8,53,29.9L53,29.9z"/>
				</g>
				<g>
					<path class="st0" d="M131.9,72.9c-9.6,4.1-20.1,0-27.9-6.1c-4.4-3.4-8.2-7.5-11.9-11.5c-2.2-2.4-4.5-4.9-7.5-6.5
						c-2.6-1.4-5.8-2-8.6-0.6c-0.6,0.4-1.2,0.9-1.8,1.3c-2.2,6.3-1.7,7.5,1.4,3.6c-0.5,0.3-1.2-0.3-0.8-0.8c3.3-4.4,9.7,2.5,4.4,6.1
						c-5.7,3.8-10.1-5-6.5-9.4c6.8-8.2,16.7,1.3,21.5,6.5c9.9,10.7,21.9,21.2,37.5,17C132,72.5,132.1,72.8,131.9,72.9L131.9,72.9z"
						/>
				</g>
				<g>
					<path class="st0" d="M43.1,14c-5.3,10.1-16.7,18.7-28.6,16.5c-5-0.9-10-3.9-11.2-9.1c-1.1-4.7,1-9.7,5-12.3
						c7.6-4.9,19.1,3.2,13.4,11.7c-1.9,2.8-6.4,4.5-9.3,1.9c-2.4-2.1-2-6,0.9-7.4c0.6-0.3,1.3,0.5,0.7,1c0.9,5.8,2.5,7.3,4.9,4.5
						c1.3-0.5,1.9-1.4,2-2.8c0.8-2.2,0.2-4.6-1.3-6.3c-3-3.4-8.7-2.9-11.7,0.1c-6.5,6.4-1.4,15.2,6.3,16.9
						c12.5,2.8,21.5-6.1,28.7-14.8C43,13.6,43.2,13.8,43.1,14L43.1,14z"/>
				</g>
				<g>
					<path class="st0" d="M42.9,15.7C38.7,19,30,22.5,27.3,15.4c-2.2-5.7,6.3-9.8,8.9-4.1c0.3,0.6-0.4,1.3-0.9,0.7
						c-0.5-0.5-1.1-1.3-1.7-1.6c-2-0.7-4.3,0.2-5,2.2c-1.1,2.9,2.4,5.2,4.6,5.5c3.5,0.5,6.5-1.3,9.4-2.9
						C42.8,15.2,43.1,15.5,42.9,15.7L42.9,15.7z"/>
				</g>
				<g>
					<path class="st0" d="M93.5,46.6c-4.5-14.1,3.1-30.5,16.8-36.2c14-5.9,32.5,1.2,34.5,17.5c0.8,6.9-2.1,14.2-7.6,18.4
						c-5.3,4-13.1,5.1-18.3,0.4c-5-4.5-6.4-12.7-2.2-18.1c3.2-4.2,9.6-5.4,13.8-1.9c4.1,3.5,3,11.4-2.6,12.8
						c-5.5,1.4-9.8-5.5-4.5-8.7c0.9-0.6,1.7,0.8,0.8,1.4c2.2,5.1,4.1,6.4,5.7,3.9c0.7-0.7,1.1-1.6,1.2-2.6c0.5-2.6-0.6-4.7-2.8-6
						c-3.8-2.4-8.7-0.7-10.9,3c-4.4,7.4,1.3,17.6,9.9,17.6c7.2,0,13.2-5.8,15.3-12.3c2-6.3,0.3-13-3.8-18.1
						c-8.7-10.6-24.9-10.3-35-1.8c-8.8,7.5-12.1,19.3-9.7,30.4C94.2,46.8,93.6,47,93.5,46.6L93.5,46.6z"/>
				</g>
				<g>
					<path class="st0" d="M133.6,48.2c-4,1.8-7.5,5.5-6.6,10.3c0.6,2.9,2.5,5.1,5.5,5.5c1.3,0.2,2.7,0.1,3.8-0.6
						c0.5-0.5,1-1,1.5-1.5c1.4-3.2,0.1-4.1-4-2.6c-0.2,0.7-1.3,0.6-1.3-0.2c0-3.4,4.3-4.5,6.4-2c3,3.6-0.7,8.2-4.7,8.6
						c-4.6,0.5-8.5-3.2-8.9-7.6c-0.5-5.1,3.2-9.3,7.9-10.5C133.7,47.5,133.9,48,133.6,48.2L133.6,48.2z"/>
				</g>
				<g>
					<path class="st0" d="M170.8,38.3c1.8,8.6-2.9,17.1-11.2,20c-3.4,1.2-7.9,1.8-10.8-0.8c-2.6-2.3-2.9-6.4-1.5-9.4
						c2.6-5.6,12.4-6.9,13.5,0.4c0.8,5-7.1,9.7-8.4,3.9c-0.1-0.6,0.7-1.2,1.1-0.7c1.2,1.4,3.6,1.5,4.8-0.2c0.6-4.1-0.8-6.2-4.2-6.2
						c-1.2,0.5-2.5,1.1-3.7,1.6c-2.1,1.6-2.7,5.8-1.2,8c2.1,3.1,6.3,2.5,9.2,1.7c8.1-2.4,12.3-10.2,11.8-18.3
						C170.2,38,170.8,37.9,170.8,38.3L170.8,38.3z"/>
				</g>
				<g>
					<path class="st0" d="M137.8,15.8c4.1,5.5,8.9,10.6,15.5,13c4.5,1.7,11.3,1.3,12.6-4.5c0.7-2.9-0.7-6.1-3.4-7.6
						c-3.1-1.6-9.3-1.9-4.1,3.5c-0.4-0.4,0.1-1.1,0.6-0.8c6.1,3.6-2.5,11.1-6.5,4.9c-4.2-6.6,5.2-12,10.8-9c7.2,4,4.7,14.4-3,15.9
						c-9.3,1.8-19.3-7.6-23-15.3C137.4,15.7,137.7,15.5,137.8,15.8L137.8,15.8z"/>
				</g>
				<g>
					<path class="st0" d="M136.7,14c2.4,0.2,5.5,0.9,7.1-1.5c0.8-1.2,0.7-2.9-0.7-3.6c-1.5-0.8-2.8,0.2-3.5,1.5
						c-0.3,0.6-1.2,0.2-1.1-0.5c0.8-4,6.8-3.4,7.3,0.5c0.2,1.8-1,3.5-2.5,4.4c-2.1,1.2-4.7,0.8-6.8-0.2
						C136.3,14.5,136.4,14,136.7,14L136.7,14z"/>
				</g>
				<g>
					<path class="st0" d="M90,27c2.9-3.1,4.1-6.8,2.6-10.9c-0.9-2.5-2.6-4.4-3.6-6.8c-1.3-3-1.8-6.8,0.9-9.1
						c0.5-0.4,1.2,0.1,0.9,0.7c-3.9,6.8,3.4,11.1,3.9,17.6c0.3,3.7-1.3,7-4.3,9.1C90.1,27.8,89.7,27.3,90,27L90,27z"/>
				</g>
				<g>
					<path class="st0" d="M89.8,0.7c-3.3,6.5-7.7,22,0.9,26.6c0.6,0.3,0.2,1.3-0.5,1.1c-4.2-1.1-5.1-6.5-5.5-10.2
						c-0.6-6.2,1.1-12.6,4.8-17.6C89.6,0.4,89.9,0.5,89.8,0.7L89.8,0.7z"/>
				</g>
				<g>
					<path class="st0" d="M31.1,29.4c3.5,8.7-8.8,14.2-5.9,23.2c0.2,0.6-0.7,0.9-0.9,0.4c-4.7-8.4,8-14.8,6.4-23.5
						C30.5,29.2,30.9,29.1,31.1,29.4L31.1,29.4z"/>
				</g>
				<g>
					<path class="st0" d="M23.5,52.7c0.8-5.6-4.4-10-1.8-15.5c1.8-3.6,5.7-6.1,9.4-7.4c0.6-0.2,0.8,0.6,0.4,0.9
						c-4.9,3.4-10.8,6-8.7,13.2c1,3.2,2.5,5.6,1.3,8.9C23.9,53.2,23.4,53.1,23.5,52.7L23.5,52.7z"/>
				</g>
				<g>
					<path class="st0" d="M31.2,32.1c-1.2,2.2-2.6,4.3-3.8,6.4c-1.2,2.2-2.1,4.6-3.5,6.6c-0.4,0.6-1.5,0.3-1.3-0.5
						c0.6-2.4,2.1-4.7,3.5-6.8c1.3-2.1,2.7-4.3,4.5-6.2C30.9,31.2,31.4,31.7,31.2,32.1L31.2,32.1z"/>
				</g>
				<g>
					<path class="st0" d="M23.1,45.8c-2.6-5.6,0.1-11.9,6-13.8c0.6-0.2,1.3,0.6,0.9,1.2c-1.7,2.4-3.2,4.9-4.9,7.3
						c-0.5,0.8-1.8,0.1-1.3-0.8c1.1-1.9,2.2-3.8,3.3-5.8c0.4,0.3,0.8,0.6,1.2,0.9c-1.9,1.7-3,3.7-3.5,6.2c-0.5-0.2-0.9-0.4-1.4-0.6
						c1.3-2.8,3-5.2,5.3-7.2c0.4-0.4,1.4-0.2,1.3,0.5c-0.3,3-1.5,5.6-3.7,7.8c-0.7,0.7-1.7-0.3-1.1-1.1c1.7-2.1,2.9-4.4,3.5-7
						c0.5,0.2,0.9,0.4,1.4,0.6c-1.5,3-3,6-4.6,9c-0.5,0.9-1.7,0.1-1.3-0.8c1.6-3.4,3.2-6.9,4.8-10.3c0.2,0.3,0.5,0.7,0.7,1
						c-5,1.2-5,7.1-4.9,11.3c0,0.9-1.3,0.9-1.4,0c-0.2-2.1-0.1-3.9,0.4-5.9c0.3,0.2,0.7,0.4,1,0.6c-0.2,0.9-0.4,1.8-0.7,2.7
						c-0.3-0.1-0.6-0.2-1-0.3c0.8-1,1.7-2,2.5-3c0.3-0.4,0.9,0.1,0.6,0.5c-0.8,1.1-1.5,2.1-2.3,3.2c-0.3,0.4-0.9,0.4-1-0.1
						c-0.3-1.5-0.1-2.6,0.8-3.8c0.4-0.5,1.3-0.2,1.1,0.5c-0.4,1.9-0.5,3.7-0.2,5.6c-0.5,0-0.9,0-1.4,0c-0.3-4.9,0.3-11.1,5.9-12.6
						c0.6-0.2,1,0.5,0.7,1c-1.5,3.5-3,6.9-4.6,10.4c-0.4-0.3-0.9-0.5-1.3-0.8c1.5-3,3-6,4.6-9c0.4-0.8,1.6-0.2,1.4,0.6
						c-0.7,2.9-2,5.4-3.9,7.7c-0.4-0.4-0.7-0.7-1.1-1.1c1.9-1.9,3-4,3.2-6.7c0.4,0.2,0.9,0.4,1.3,0.5c-2.2,2-3.9,4.2-5.1,6.9
						c-0.4,0.8-1.5,0.2-1.4-0.6c0.5-2.7,1.8-5,3.9-6.9c0.6-0.6,1.6,0.2,1.2,0.9c-1.1,1.9-2.2,3.8-3.3,5.8c-0.4-0.3-0.9-0.5-1.3-0.8
						c1.6-2.4,3.3-4.9,4.8-7.4c0.3,0.4,0.6,0.8,0.9,1.2c-4.9,1.9-7.2,6.8-5.5,11.9C24.2,46,23.3,46.3,23.1,45.8L23.1,45.8z"/>
				</g>
				<g>
					<path class="st0" d="M89.8,25.3c1.4-3.2,1.6-6.2,0.4-9.4c0.5-0.1,0.9-0.3,1.4-0.4c0.9,2.5,1,4.6,0.4,7.2
						c-0.5-0.1-1-0.3-1.5-0.4c0.4-2.1,0.3-3.9-0.2-5.9c0.5-0.1,1.1-0.1,1.6-0.2c0,2.2,0.4,4.3,1,6.5c-0.5,0-1.1,0-1.6,0
						c0.7-2.3,0.7-4.1-0.4-6.4c0.5-0.1,1-0.1,1.5-0.2c-0.3,1.7,0,3.3,0.9,4.7c-0.5,0.1-1,0.1-1.5,0.2c0.1-0.6,0.3-1.2,0.4-1.8
						c-1.4-1.6-2-1.8-1.7-0.5c-0.4,1.1,0.5,3.5,0.8,4.6c-0.5,0.1-1,0.3-1.5,0.4c-0.5-2.3-1.1-4.7-1.6-7c0.5-0.1,1-0.1,1.6-0.2
						c0,2.7,0.4,5.3,1,7.9c-0.5,0.1-1,0.3-1.6,0.4c-0.8-3.2-1.5-6.3-2.3-9.5c0.5-0.1,1.1-0.1,1.6-0.2c0.3,3.1,0.6,6.2,0.9,9.4
						c0.1,0.8-1.2,1.2-1.5,0.4c-2-4.5-2.7-9-1.9-13.9c0.1-0.9,1.7-0.7,1.7,0.2c-0.3,4.2,0,8.3,0.7,12.4c-0.5,0.1-1.1,0.1-1.6,0.2
						c-0.4-4.1-0.4-8.1-0.1-12.1c0.1-0.9,1.3-1.1,1.6-0.2c0.6,2.1,1.5,3.9,2.6,5.6c-0.5,0.2-1,0.4-1.5,0.6c-0.3-2.2-0.9-4.1-2-6.2
						c-0.5-0.9,0.8-1.6,1.4-0.8c1,1.4,2,2.8,3,4.2c-0.5,0.2-0.9,0.4-1.4,0.6c-0.7-2-1.6-3.7-2.9-5.5c0.4-0.2,0.8-0.5,1.2-0.7
						c1,1.7,1.9,3.4,2.9,5.2c-0.4,0.2-0.8,0.3-1.2,0.5c-0.6-1.9-1.2-3.1-2.5-4.7c0.4-0.1,0.7-0.3,1.1-0.4c0.2,1.2,0.3,2.3,0.5,3.5
						c0.1,0.7-1,1.1-1.1,0.3c-0.3-2-0.7-4-1-6c0.4,0,0.7,0,1.1,0c-0.3,1.1-0.5,2.2-0.8,3.4c-0.2,0.8-1.3,0.4-1.2-0.3
						c0.2-1.4,0.4-2.7,0.7-4.1c0.4,0.1,0.8,0.2,1.1,0.3c-0.2,0.6-0.4,1.3-0.6,1.9c-0.2,0.6-1.2,0.5-1.1-0.1c0.1-0.9,0.1-1.8,0.2-2.7
						c0.4,0,0.7,0.1,1.1,0.1c-1.9,6.3-1.6,12.7,1.1,18.6c0.4,0.8-0.8,1.6-1.3,0.7c-1.5-2.7-2.2-5.4-2.1-8.4c0-1,1.4-0.9,1.5,0
						c0.1,1.2,0.1,2.8,0.5,3.9c0.1,0.4,0.1,0.9,0.2,1.3c2.7,1.1,3.7,0.6,3.2-1.3c0.5,0.1,0.9,0.1,1.4,0.2c-0.6,1.6-1.2,3.3-1.8,4.9
						c-0.3,0.8-1.6,0.5-1.3-0.4c0.5-1.4,0.9-2.8,1.4-4.2c0.3-0.8,1.5-0.5,1.3,0.3c-0.4,1.4-0.9,2.8-1.4,4.2
						c-0.4-0.1-0.9-0.2-1.3-0.4c0.6-1.6,1.1-3.3,1.7-4.9c0.3-0.8,1.4-0.6,1.4,0.2c0.1,2.2-0.4,6.7-3.8,5.8c-3.1-0.8-2.6-7.5-2.9-9.7
						c0.5,0,1,0,1.5,0c0,2.8,0.5,5.3,1.9,7.7c-0.4,0.2-0.8,0.5-1.3,0.7c-2.8-6.4-3.1-13.1-0.9-19.7c0.2-0.6,1.1-0.5,1.1,0.1
						c-0.1,0.9-0.1,1.8-0.2,2.7c-0.4,0-0.7-0.1-1.1-0.1c0.2-0.6,0.4-1.3,0.6-1.9c0.2-0.7,1.2-0.4,1.1,0.3c-0.2,1.4-0.4,2.7-0.7,4.1
						c-0.4-0.1-0.8-0.2-1.2-0.3c0.3-1.1,0.5-2.2,0.8-3.4c0.1-0.5,1-0.6,1.1,0c0.3,2,0.7,4,1,6c-0.4,0.1-0.7,0.2-1.1,0.3
						c-0.2-1.2-0.4-2.4-0.6-3.6c-0.1-0.5,0.6-1.1,1-0.6c1.4,1.6,2.3,3.2,2.9,5.2c0.2,0.7-0.8,1.2-1.2,0.5c-1-1.7-2-3.4-3-5.1
						c-0.5-0.8,0.7-1.4,1.2-0.7c1.4,1.8,2.3,3.7,3.1,5.8c0.3,0.9-0.9,1.2-1.4,0.6c-1-1.4-2-2.8-3-4.2c0.5-0.3,0.9-0.5,1.4-0.8
						c1.1,2.1,1.8,4.1,2.1,6.5c0.1,0.9-0.9,1.4-1.5,0.6c-1.3-1.9-2.2-3.8-2.8-6c0.5-0.1,1.1-0.1,1.6-0.2c-0.3,4.1-0.2,8.1,0.2,12.1
						c0.1,0.9-1.4,1.1-1.6,0.2c-0.8-4.3-1.1-8.5-0.9-12.8c0.6,0.1,1.1,0.1,1.7,0.2c-0.6,4.4-0.1,8.5,1.7,12.6
						c-0.5,0.1-1,0.3-1.5,0.4c-0.3-3.1-0.6-6.2-0.9-9.4c-0.1-0.9,1.4-1.1,1.6-0.2c0.8,3.2,1.5,6.3,2.3,9.5c0.2,1-1.3,1.4-1.6,0.4
						c-0.7-2.8-1.1-5.4-1.1-8.3c0-0.9,1.4-1.1,1.6-0.2c0.5,2.3,1,4.7,1.6,7c0.2,1-1.3,1.4-1.5,0.4c-0.4-1.7-2.6-9.1,0.7-9.4
						c3.3-0.3,3.5,5.4,2.9,7.2c-0.2,0.7-1.2,0.8-1.5,0.2c-1.1-2-1.4-3.8-1.1-6c0.1-0.7,1.2-0.8,1.5-0.2c1.2,2.6,1.4,4.9,0.5,7.7
						c-0.2,0.8-1.3,0.8-1.6,0c-0.7-2.3-1-4.5-1.1-6.9c0-0.9,1.3-1.1,1.6-0.2c0.7,2.4,0.7,4.4,0.2,6.8c-0.2,1-1.7,0.6-1.5-0.4
						c0.5-2.3,0.3-4.2-0.3-6.4c-0.3-0.9,1.1-1.3,1.4-0.4c1.2,3.6,0.9,7-1,10.3C90.3,26.4,89.5,25.9,89.8,25.3L89.8,25.3z"/>
				</g>
				<g>
					<path class="st0" d="M125,51.4c-2.1,3.4-5.6,7.3-9.5,8.4c-0.6,0.2-0.9-0.6-0.4-1c1.7-1.3,3.7-2.1,5.3-3.5
						c1.5-1.3,2.9-2.7,4.1-4.3C124.7,50.7,125.1,51.1,125,51.4L125,51.4z"/>
				</g>
				<g>
					<path class="st0" d="M115.1,59.1c-0.2-4,4.4-9.4,8.8-8.2c0.5,0.2,0.6,1,0,1.1c-2,0.5-3.7,0.6-5.3,1.9c-1.7,1.3-2.6,3.2-2.9,5.3
						C115.5,59.5,115.1,59.4,115.1,59.1L115.1,59.1z"/>
				</g>
				<g>
					<path class="st0" d="M123.2,52.5c-2.3,1.2-4.2,2.8-5.5,5c-0.3-0.3-0.6-0.7-1-1c1.6-1.1,3-2.3,4.3-3.8c0.2,0.4,0.4,0.9,0.6,1.3
						c-1.4,0.1-2.4,0.9-3,2.1c-0.2-0.4-0.4-0.8-0.7-1.2c1.4-0.2,2.5-1.1,3.1-2.3c0.2,0.4,0.4,0.8,0.7,1.1c-1.2,0.1-2.2,0.8-2.9,1.8
						c-0.2-0.4-0.4-0.7-0.6-1.1c1.3,0,2.3-1,2.5-2.3c0.3,0.3,0.6,0.6,0.8,0.8c-1.1,0.3-2,0.9-2.9,1.6c-0.4,0.4-1.2-0.1-0.8-0.6
						c0.8-1.2,2-1.9,3.3-2.3c0.6-0.2,0.9,0.3,0.8,0.8c-0.3,1.9-1.9,3.3-3.8,3.3c-0.5,0-0.9-0.6-0.6-1.1c1-1.5,2.4-2.4,4.1-2.6
						c0.6-0.1,0.9,0.7,0.7,1.1c-0.8,1.8-2.5,2.9-4.4,3.1c-0.7,0.1-0.9-0.7-0.7-1.2c0.7-1.8,2.4-2.8,4.3-2.9c0.7,0,1,0.8,0.6,1.3
						c-1.4,1.5-3,2.9-4.7,3.9c-0.6,0.4-1.4-0.4-1-1c1.6-2.3,3.8-4.2,6.4-5.1C123.4,51.6,123.7,52.3,123.2,52.5L123.2,52.5z"/>
				</g>
				<g>
					<path class="st0" d="M122.7,52.8c-1.7,1.5-3.5,2.9-5.4,4.2c-0.4,0.3-0.9-0.4-0.5-0.7c1.7-1.5,3.5-2.9,5.4-4.2
						C122.6,51.8,123.1,52.4,122.7,52.8L122.7,52.8z"/>
				</g>
				<g>
					<path class="st0" d="M119.4,53.4c-1,1.6-2,3.1-3.1,4.7c-0.3-0.2-0.7-0.4-1-0.6c0.8-1.2,1.5-2.4,2-3.8c0.3,0.2,0.6,0.4,0.9,0.5
						c-0.7,0.7-1.1,1.5-1.2,2.4c-0.3-0.1-0.6-0.3-0.9-0.4c1.8-1.5,3.7-3,5.5-4.4c0.2-0.1,0.4-0.2,0.6-0.1c0.8,0.5,1,1.2,0.4,1.9
						c-0.2,0.3-0.7,0.1-0.7-0.3c0.1-0.3,0-0.5-0.3-0.7c0.2,0,0.4-0.1,0.6-0.1c-1.8,1.5-3.7,3-5.5,4.4c-0.3,0.3-0.9,0.1-0.9-0.4
						c0.1-1.3,0.6-2.3,1.4-3.2c0.4-0.4,1.1,0,0.9,0.5c-0.4,1.5-1.1,2.9-2.1,4.1c-0.4,0.6-1.4,0-1-0.6c1.1-1.5,2.2-3,3.3-4.5
						C118.9,52.4,119.7,52.9,119.4,53.4L119.4,53.4z"/>
				</g>
			</g>
		</g>
	</g>
</g>
</svg>
