<?xml version="1.0" encoding="utf-8"?>
<!-- Generator: Adobe Illustrator 19.1.0, SVG Export Plug-In . SVG Version: 6.00 Build 0)  -->
<svg version="1.1" id="Objects" xmlns="http://www.w3.org/2000/svg" xmlns:xlink="http://www.w3.org/1999/xlink" x="0px" y="0px"
	 width="326.3px" height="46.1px" viewBox="0 0 326.3 46.1" style="enable-background:new 0 0 326.3 46.1;" xml:space="preserve">
<style type="text/css">
	.st0{fill:#FFFFFF;}
</style>
<g>
	<g>
		<g>
			<g>
				<g>
					<path class="st0" d="M169.5,16.7c-1.3,2.9,3.7,4.2,4.1,1.1c0.2-1.7-0.7-3.4-2.3-4c-1.7-0.7-3.9-0.2-5.2,1.1
						c-3.4,3.5,0.3,8.9,4.5,8.7c4.1-0.1,5-3.7,7.9-5.7c1.5-1,3.6-1.3,5.1-0.3c2.8,1.8,2.2,7.4-1.8,6.6c-2.8-0.6-0.9-4.2,0.6-2.4
						c0.2,0.2-0.1,0.6-0.4,0.5c3-0.6,3.4-1.9,1.1-4c-1.4-0.8-2.6-0.7-3.7,0.1c-1.1,0.6-1.7,1.3-2.5,2.2c-0.8,1-1.6,2-2.7,2.7
						c-2,1.2-4.5,1.4-6.6,0.4c-3.9-1.8-5-7.9-1.1-10.3c3.3-2.1,9.8,0.5,7.6,5.1c-1.7,3.5-7.1,1.3-5-2.1
						C169.4,16.3,169.6,16.5,169.5,16.7L169.5,16.7z"/>
				</g>
				<g>
					<path class="st0" d="M158.4,16.5c2.1,3.4-3.4,5.6-5,2.1c-2.2-4.6,4.2-7.1,7.6-5.1c4,2.4,2.9,8.5-1.1,10.3
						c-2.1,1-4.7,0.7-6.6-0.4c-1.1-0.7-1.9-1.7-2.7-2.7c-0.5-0.6-0.9-1.2-1.5-1.7c-1.6-1.4-3.3-1.5-5.2-0.3
						c-1.8,1.9-1.3,3.1,1.5,3.6c-0.3,0.2-0.5-0.2-0.3-0.5c1.5-1.8,3.4,1.7,0.6,2.4c-3.9,0.9-4.6-4.9-1.8-6.6c1.6-1,3.6-0.7,5.1,0.3
						c2.9,2,3.7,5.6,7.9,5.7c4.1,0.1,7.6-4.7,4.9-8.3c-1.1-1.5-3.2-2.3-5.1-1.8c-1.4,0.4-3.7,2.5-2.8,4.2c0.6,0.6,1.2,1.2,1.8,1.9
						c2.1-0.1,2.9-1.1,2.3-3C158,16.5,158.3,16.3,158.4,16.5L158.4,16.5z"/>
				</g>
			</g>
			<g>
				<path class="st0" d="M160.6,30.6c-1.6-2-1.8-5.2,0.4-6.9c2-1.5,5-1.3,6.4,0.8c1.4,2,1.1,5-1,6.4c-2.1,1.5-5.1,1-6.4-1.3
					c-0.4-0.7,0.5-1.4,1.1-0.9c1,1,2.9,1.4,4.2,0.6c1.2-0.8,1.4-2.7,0.6-3.9c-0.9-1.3-2.7-1.4-3.9-0.6c-1.9,1.2-1.3,3.6-1,5.4
					C161.1,30.6,160.8,30.8,160.6,30.6L160.6,30.6z"/>
			</g>
			<g>
				<g>
					<path class="st0" d="M170.8,26.5c21.3-1.4,42.9-0.6,64.3-0.6c10.5,0,21,0,31.5,0c10.8,0,21.9-0.7,32.7,0.3
						c0.9,0.1,0.9,1.3,0,1.4c-10.8,1-21.9,0.3-32.7,0.3c-10.5,0-21,0-31.5,0c-21.4,0-42.9,0.7-64.3-0.6
						C170.4,27.1,170.4,26.6,170.8,26.5L170.8,26.5z"/>
				</g>
				<g>
					<path class="st0" d="M299.3,27.1c5,3.1,13,2.9,16.5,8.2c2.7,4.1,0.4,9.8-4.5,10.7c-3.7,0.7-9.1-3.3-5.7-7.2
						c2.4-2.7,7-0.3,5.3,3.1c-0.2,0.5-1.1,0.3-1.1-0.3c-0.6,5.3,4.6,1,5.2-1.1c0.4-1.4,0.1-3.2-0.7-4.4c-1.4-2.3-4.3-3.5-6.7-4.3
						c-3.1-1.1-6.3-1.9-8.7-4.3C298.8,27.3,299,27,299.3,27.1L299.3,27.1z"/>
				</g>
				<g>
					<path class="st0" d="M300.5,26.8c6.4,5.8,13.4-2.2,20.5-0.5c3,0.7,4.9,2.7,5.3,5.7c0.1,0.9-1.3,1-1.5,0.2
						c-3.1-10.2-18.7,3.4-24.7-5C299.8,26.9,300.3,26.6,300.5,26.8L300.5,26.8z"/>
				</g>
				<g>
					<path class="st0" d="M299.7,25.7c4.7,2.8,7.2-5,10.6-6.7c2.4-1.2,4.7-0.8,6.2,1.4c0.6,0.9-0.7,1.7-1.5,1.1c-5-4.3-10,11.1-16,5
						C298.7,26,299.2,25.4,299.7,25.7L299.7,25.7z"/>
				</g>
				<g>
					<path class="st0" d="M298.9,28c-1.3-2.3-0.3-5.5,2.1-6.6c2.4-1.1,6.1,0.1,6.5,3c0.1,0.5-0.6,1.1-1,0.6
						c-1.1-1.4-2.7-2.8-4.6-2.2c-2.1,0.6-3,3.1-2.5,5C299.5,28.1,299,28.3,298.9,28L298.9,28z"/>
				</g>
				<g>
					<path class="st0" d="M300.2,26.1c-0.6,3.7,3.7,4.8,5.1,7.6c0.8,1.5,0.7,3.2-0.6,4.4c-0.6,0.5-1.5-0.1-1.1-0.9
						c2.4-4.4-6.8-6.7-3.9-11.4C299.8,25.6,300.3,25.8,300.2,26.1L300.2,26.1z"/>
				</g>
			</g>
			<g>
				<g>
					<path class="st0" d="M155.5,27.2c-21.3,1.4-42.9,0.6-64.3,0.6c-10.5,0-21,0-31.5,0c-10.8,0-21.9,0.7-32.7-0.3
						c-0.9-0.1-0.9-1.3,0-1.4c10.8-1,21.9-0.3,32.7-0.3c10.5,0,21,0,31.5,0c21.4,0,42.9-0.7,64.3,0.6
						C155.9,26.6,155.9,27.1,155.5,27.2L155.5,27.2z"/>
				</g>
				<g>
					<path class="st0" d="M27.3,27.6c-2.4,2.5-5.5,3.2-8.7,4.3c-2.2,0.8-4.6,1.8-6.1,3.7c-1,1.3-1.9,3.4-1.2,5.1
						c0.8,2.1,5.9,6.7,5.2,1.1c0.1,0.6-0.8,0.8-1.1,0.3c-1.7-3.3,2.7-5.8,5.2-3.2c3.6,3.8-1.9,7.9-5.6,7.2
						c-4.7-0.8-7.1-6.2-4.7-10.2c3.3-5.7,11.6-5.5,16.7-8.6C27.3,27,27.5,27.3,27.3,27.6L27.3,27.6z"/>
				</g>
				<g>
					<path class="st0" d="M26.2,27.2c-6,8.4-21.6-5.3-24.7,5c-0.3,1-1.6,0.6-1.5-0.4c0.4-3,2.5-4.9,5.4-5.5
						c7.1-1.6,13.9,6.5,20.4,0.6C26,26.6,26.4,26.9,26.2,27.2L26.2,27.2z"/>
				</g>
				<g>
					<path class="st0" d="M27.2,26.4c-5.9,6.1-11-9.3-16-5c-0.7,0.6-2.1-0.2-1.4-1.1c1.5-2.2,3.9-2.6,6.2-1.4
						c3.5,1.7,5.9,9.5,10.6,6.7C27.1,25.4,27.6,26,27.2,26.4L27.2,26.4z"/>
				</g>
				<g>
					<path class="st0" d="M26.9,27.8c0.5-1.9-0.4-4.4-2.5-5c-1.9-0.5-3.5,0.8-4.6,2.2c-0.4,0.5-1.1-0.1-1-0.6c0.4-2.8,4.1-4,6.5-3
						c2.5,1.1,3.5,4.2,2.1,6.6C27.2,28.3,26.8,28.1,26.9,27.8L26.9,27.8z"/>
				</g>
				<g>
					<path class="st0" d="M26.7,25.9c2.9,4.7-6.4,7-3.9,11.4c0.4,0.7-0.5,1.4-1.1,0.9c-1.3-1.2-1.4-2.8-0.6-4.4
						c1.4-2.8,5.7-3.9,5.1-7.6C26,25.8,26.5,25.5,26.7,25.9L26.7,25.9z"/>
				</g>
			</g>
		</g>
	</g>
</g>
</svg>
