<?xml version="1.0" encoding="utf-8"?>
<!-- Generator: Adobe Illustrator 19.1.0, SVG Export Plug-In . SVG Version: 6.00 Build 0)  -->
<svg version="1.1" id="Layer_1" xmlns="http://www.w3.org/2000/svg" xmlns:xlink="http://www.w3.org/1999/xlink" x="0px" y="0px"
	 width="88.6px" height="51.9px" viewBox="-351 281.1 88.6 51.9" style="enable-background:new -351 281.1 88.6 51.9;"
	 xml:space="preserve">
<style type="text/css">
	.st0{fill:#D67535;}
	.st1{font-family:'CenturyGothic';}
	.st2{font-size:12px;}
	.st3{font-size:4.5px;}
	.st4{font-family:'MyriadPro-It';}
	.st5{font-size:11px;}
	.st6{font-family:'BodoniCyrillic';}
	.st7{font-size:16px;}
</style>
<g>
	<g>
		<path class="st0" d="M-328.6,312.6c0.9,0.8,2.2,1.1,3.4,1c1.3-0.1,2.5-0.7,3.5-1.4c1.2-0.8,2.2-1.8,3.2-2.8
			c0.1-0.1,0.3-0.3,0.4-0.4c1.2,0.9,2.5,1.9,3.8,2.8c-0.1,0.4-0.2,0.8,0,1.1c0.3,0.4,1,0.1,1.3-0.1c0.1,0,0.2-0.1,0.3-0.2
			c0.2,0.1,0.5,0.2,0.7,0.3c1.1,0.4,2.3,0.5,3.5,0.1c1.1-0.4,2-1.1,2.6-2c0.7-0.9,1.1-2.1,1.1-3.3c0-1.1-0.6-2.2-1.8-2.3
			c-1.1-0.2-2.3,0.3-3.3,0.9c-1.2,0.7-2.2,1.7-3,2.8c-0.5,0.6-0.9,1.3-1.3,2c-0.1,0.2-0.2,0.4-0.2,0.6c-1.1-0.7-2.1-1.5-3.2-2.3
			c-0.2-0.2-0.4-0.3-0.6-0.5c0.8-0.9,1.6-1.8,2.5-2.7c1.7-1.8,3.8-4,6.4-4.3c0.9-0.1,1.9,0,2.7,0.5c0.9,0.5,1.4,1.4,1.6,2.3l0,0
			c-0.2-1-0.7-1.9-1.6-2.4c-0.9-0.6-2-0.7-3-0.5c-2.6,0.3-4.6,2.4-6.2,4.2c-0.8,0.9-1.7,1.9-2.5,2.8c-0.9-0.6-1.7-1.2-2.7-1.7
			c-1.2-0.6-2.5-1.1-3.9-1c-1.3,0.1-2.6,0.6-3.5,1.5C-329.8,308.9-330.2,311.2-328.6,312.6z M-314.3,312.7c-0.2-0.3-0.1-0.7,0-0.9
			v-0.1c0.5,0.3,1,0.6,1.5,0.8C-313.2,312.8-314,313.2-314.3,312.7z M-314,310.8c0.3-0.6,0.7-1.1,1.1-1.6c0.9-1,2-2,3.2-2.7
			c1-0.6,2.2-1.1,3.3-0.8c1.3,0.4,1.4,2.1,1.2,3.2c-0.2,1.2-1,2.3-1.9,3.1c-1,0.8-2.2,1.2-3.5,1.1c-0.7-0.1-1.5-0.3-2.2-0.6
			c0.6-0.4,1-0.9,1.5-1.4c0,0,0-0.1,0,0c-0.4,0.5-0.9,1-1.4,1.4c0,0,0,0-0.1,0c-0.5-0.2-1-0.5-1.5-0.8l0,0
			C-314.2,311.3-314.1,311.1-314,310.8z M-326.8,306.5c2.9-1.3,5.9,0.4,8.2,2c0.1,0.1,0.2,0.1,0.3,0.2c-1.1,1.2-2.2,2.3-3.5,3.3
			c-1.1,0.8-2.4,1.4-3.8,1.5c-1.3,0-2.7-0.4-3.4-1.5c-0.6-0.9-0.6-2-0.2-3C-328.9,307.9-328,307-326.8,306.5z"/>
		<path class="st0" d="M-334.7,308.2c0.9,0.9,2.2,1.5,3.5,1.5c1.4,0.1,2.7-0.4,3.9-1c0.9-0.5,1.8-1.1,2.7-1.7
			c0.8,0.9,1.7,1.9,2.5,2.8c1.7,1.8,3.7,3.9,6.2,4.2c1,0.1,2.1,0,3-0.5c0.9-0.6,1.4-1.4,1.6-2.4l0,0c-0.2,0.9-0.8,1.8-1.6,2.3
			c-0.8,0.5-1.7,0.6-2.7,0.5c-2.6-0.3-4.7-2.4-6.4-4.3c-0.8-0.9-1.6-1.8-2.5-2.7c0.2-0.1,0.4-0.3,0.6-0.5c1-0.8,2-1.6,3.2-2.3
			c0.1,0.2,0.2,0.5,0.2,0.6c0.3,0.7,0.8,1.4,1.3,2c0.8,1.1,1.8,2.1,3,2.8c1,0.6,2.1,1.1,3.3,0.9c1.2-0.2,1.8-1.2,1.8-2.3
			c0-1.2-0.4-2.3-1.1-3.3c-0.7-0.9-1.6-1.6-2.6-2c-1.2-0.4-2.3-0.3-3.5,0.1c-0.2,0.1-0.5,0.2-0.7,0.3c-0.1-0.1-0.2-0.1-0.3-0.2
			c-0.3-0.2-1.1-0.5-1.3-0.1c-0.2,0.3-0.2,0.7,0,1.1c-1.3,0.8-2.5,1.8-3.8,2.8c-0.1-0.1-0.3-0.3-0.4-0.4c-1-1-2-2-3.2-2.8
			c-1.1-0.8-2.2-1.3-3.5-1.4c-1.2-0.1-2.5,0.2-3.4,1C-336.4,304.5-336.1,306.8-334.7,308.2z M-319.1,303.2c-0.5,0.2-1,0.5-1.5,0.8
			v-0.1c-0.1-0.3-0.1-0.7,0-0.9C-320.3,302.5-319.5,302.9-319.1,303.2z M-320.6,304.1L-320.6,304.1c0.5-0.3,1-0.6,1.6-0.9
			c0,0,0,0,0.1,0c0.6,0.4,1,0.9,1.4,1.4c0,0,0.1,0,0,0c-0.4-0.5-0.9-1.1-1.5-1.4c0.7-0.3,1.4-0.6,2.2-0.6c1.3-0.1,2.5,0.3,3.5,1.1
			s1.7,1.9,1.9,3.1c0.2,1.1,0.1,2.8-1.2,3.2c-1.1,0.3-2.4-0.2-3.3-0.8c-1.2-0.7-2.2-1.7-3.2-2.7c-0.4-0.5-0.8-1-1.1-1.6
			C-320.4,304.6-320.5,304.4-320.6,304.1z M-335.6,306.7c-0.4-1-0.4-2.1,0.2-3c0.8-1.1,2.2-1.5,3.4-1.5c1.4,0,2.7,0.6,3.8,1.5
			c1.3,1,2.4,2.1,3.5,3.3c-0.1,0.1-0.2,0.1-0.3,0.2c-2.3,1.7-5.3,3.3-8.2,2C-334.3,308.7-335.2,307.9-335.6,306.7z"/>
	</g>
	<g>
		<path class="st0" d="M-287.6,303.1c-0.9-0.8-2.2-1.1-3.4-1c-1.3,0.1-2.5,0.7-3.5,1.4c-1.2,0.9-2.3,1.9-3.2,2.9
			c-0.1,0.1-0.3,0.3-0.4,0.4c-1.2-0.9-2.5-1.9-3.8-2.8c0.1-0.4,0.2-0.8,0-1.1c-0.3-0.4-1-0.1-1.3,0.1c-0.1,0-0.2,0.1-0.3,0.2
			c-0.2-0.1-0.5-0.2-0.7-0.3c-1.1-0.4-2.3-0.5-3.5-0.1c-1.1,0.4-2,1.1-2.6,2c-0.7,0.9-1.1,2.1-1.1,3.3s0.6,2.2,1.8,2.3
			c1.1,0.2,2.3-0.3,3.3-0.9c1.2-0.7,2.2-1.7,3-2.8c0.5-0.6,0.9-1.3,1.3-2c0.1-0.2,0.2-0.4,0.2-0.6c1.1,0.7,2.1,1.5,3.2,2.3
			c0.2,0.2,0.4,0.3,0.6,0.5c-0.8,0.9-1.6,1.8-2.5,2.7c-1.7,1.8-3.8,4-6.4,4.3c-0.9,0.1-1.9,0-2.7-0.5c-0.9-0.5-1.4-1.4-1.6-2.3l0,0
			c0.2,1,0.7,1.9,1.6,2.4c0.9,0.6,2,0.7,3,0.5c2.6-0.3,4.6-2.4,6.2-4.2c0.8-0.9,1.7-1.9,2.5-2.8c0.9,0.6,1.7,1.2,2.7,1.7
			c1.2,0.6,2.5,1.1,3.9,1c1.3-0.1,2.6-0.6,3.5-1.5C-286.5,306.8-286.1,304.5-287.6,303.1z M-302,303c0.2,0.3,0.1,0.7,0,0.9v0.1
			c-0.5-0.3-1-0.6-1.5-0.8C-303.1,302.9-302.3,302.5-302,303z M-302.3,304.9c-0.3,0.6-0.7,1.1-1.1,1.6c-0.9,1-2,2-3.2,2.7
			c-1,0.6-2.2,1.1-3.3,0.8c-1.3-0.4-1.4-2.1-1.2-3.2c0.2-1.2,1-2.3,1.9-3.1c1-0.8,2.2-1.2,3.5-1.1c0.7,0.1,1.5,0.3,2.2,0.6
			c-0.6,0.4-1,0.9-1.5,1.4c0,0,0,0.1,0,0c0.4-0.5,0.9-1,1.4-1.4c0,0,0,0,0.1,0c0.5,0.2,1,0.5,1.5,0.8l0,0
			C-302,304.4-302.2,304.6-302.3,304.9z M-289.4,309.2c-2.9,1.3-5.9-0.4-8.2-2c-0.1-0.1-0.2-0.1-0.3-0.2c1.1-1.2,2.2-2.3,3.5-3.3
			c1.1-0.8,2.4-1.4,3.8-1.5c1.3,0,2.7,0.4,3.4,1.5c0.6,0.9,0.6,2,0.2,3C-287.4,307.9-288.3,308.7-289.4,309.2z"/>
		<path class="st0" d="M-281.6,307.5c-0.9-0.9-2.2-1.5-3.5-1.5c-1.4-0.1-2.7,0.4-3.9,1c-0.9,0.5-1.8,1.1-2.7,1.7
			c-0.8-0.9-1.7-1.9-2.5-2.8c-1.7-1.8-3.7-3.9-6.2-4.2c-1-0.1-2.1,0-3,0.5c-0.9,0.6-1.4,1.4-1.6,2.4l0,0c0.2-0.9,0.8-1.8,1.6-2.3
			c0.8-0.5,1.7-0.6,2.7-0.5c2.6,0.3,4.7,2.4,6.4,4.3c0.8,0.9,1.6,1.8,2.5,2.7c-0.2,0.1-0.4,0.3-0.6,0.5c-1,0.8-2,1.6-3.2,2.3
			c-0.1-0.2-0.2-0.5-0.2-0.6c-0.3-0.7-0.8-1.4-1.3-2c-0.8-1.1-1.8-2.1-3-2.8c-1-0.6-2.1-1.1-3.3-0.9c-1.2,0.2-1.8,1.2-1.8,2.3
			c0,1.2,0.4,2.3,1.1,3.3c0.7,0.9,1.6,1.6,2.6,2c1.2,0.4,2.3,0.3,3.5-0.1c0.2-0.1,0.5-0.2,0.7-0.3c0.1,0.1,0.2,0.1,0.3,0.2
			c0.3,0.2,1.1,0.5,1.3,0.1c0.2-0.3,0.2-0.7,0-1.1c1.3-0.8,2.5-1.8,3.8-2.8c0.1,0.1,0.3,0.3,0.4,0.4c1,1,2,2,3.2,2.8
			c1.1,0.8,2.2,1.3,3.5,1.4c1.2,0.1,2.5-0.2,3.4-1C-279.8,311.2-280.2,308.9-281.6,307.5z M-297.2,312.5c0.5-0.2,1-0.5,1.5-0.8v0.1
			c0.1,0.3,0.1,0.7,0,0.9C-296,313.2-296.8,312.8-297.2,312.5z M-295.7,311.6L-295.7,311.6c-0.5,0.3-1,0.6-1.6,0.9c0,0,0,0-0.1,0
			c-0.6-0.4-1-0.9-1.4-1.4c0,0-0.1,0,0,0c0.4,0.5,0.9,1.1,1.5,1.4c-0.7,0.3-1.4,0.6-2.2,0.6c-1.3,0.1-2.5-0.3-3.5-1.1
			c-1-0.8-1.7-1.9-1.9-3.1c-0.2-1.1-0.1-2.8,1.2-3.2c1.1-0.3,2.4,0.2,3.3,0.8c1.2,0.7,2.2,1.7,3.2,2.7c0.4,0.5,0.8,1,1.1,1.6
			C-295.9,311.1-295.7,311.3-295.7,311.6z M-280.6,309c0.4,1,0.4,2.1-0.2,3c-0.8,1.1-2.2,1.5-3.4,1.5c-1.4,0-2.7-0.6-3.8-1.5
			c-1.3-1-2.4-2.1-3.5-3.3c0.1-0.1,0.2-0.1,0.3-0.2c2.3-1.7,5.3-3.3,8.2-2C-282,307-281.1,307.9-280.6,309z"/>
	</g>
</g>
<text transform="matrix(1 0 0 1 -317.2113 327.4781)" class="st0 st1 st2">500</text>
<text transform="matrix(1 0 0 1 -317.6798 330.9877)" class="st0 st1 st3">5 литров</text>
<text transform="matrix(1 0 0 1 -297.8878 328.717)" class="st0 st4 st5">р.</text>
<text transform="matrix(1 0 0 1 -322.9704 294.9294)" class="st0 st6 st7">РОМ</text>
</svg>
