<?xml version="1.0" encoding="utf-8"?>
<!-- Generator: Adobe Illustrator 19.1.0, SVG Export Plug-In . SVG Version: 6.00 Build 0)  -->
<svg version="1.1" id="Layer_1" xmlns="http://www.w3.org/2000/svg" xmlns:xlink="http://www.w3.org/1999/xlink" x="0px" y="0px"
	 width="88.6px" height="51.9px" viewBox="-351 281.1 88.6 51.9" style="enable-background:new -351 281.1 88.6 51.9;"
	 xml:space="preserve">
<style type="text/css">
	.st0{fill:#C4CFD7;}
	.st1{fill:#B6C4CD;}
	.st2{font-family:'CenturyGothic';}
	.st3{font-size:12px;}
	.st4{font-size:4.5px;}
	.st5{font-family:'MyriadPro-It';}
	.st6{font-size:11px;}
	.st7{font-family:'BodoniCyrillic';}
	.st8{font-size:16px;}
</style>
<g>
	<g>
		<path class="st0" d="M-330.4,311.3c0.9,0.8,2.2,1.1,3.4,1c1.3-0.1,2.5-0.7,3.5-1.4c1.2-0.8,2.2-1.8,3.2-2.8
			c0.1-0.1,0.3-0.3,0.4-0.4c1.2,0.9,2.5,1.9,3.8,2.8c-0.1,0.4-0.2,0.8,0,1.1c0.3,0.4,1,0.1,1.3-0.1c0.1,0,0.2-0.1,0.3-0.2
			c0.2,0.1,0.5,0.2,0.7,0.3c1.1,0.4,2.3,0.5,3.5,0.1c1.1-0.4,2-1.1,2.6-2c0.7-0.9,1.1-2.1,1.1-3.3c0-1.1-0.6-2.2-1.8-2.3
			c-1.1-0.2-2.3,0.3-3.3,0.9c-1.2,0.7-2.2,1.7-3,2.8c-0.5,0.6-0.9,1.3-1.3,2c-0.1,0.2-0.2,0.4-0.2,0.6c-1.1-0.7-2.1-1.5-3.2-2.3
			c-0.2-0.2-0.4-0.3-0.6-0.5c0.8-0.9,1.6-1.8,2.5-2.7c1.7-1.8,3.8-4,6.4-4.3c0.9-0.1,1.9,0,2.7,0.5c0.9,0.5,1.4,1.4,1.6,2.3l0,0
			c-0.2-1-0.7-1.9-1.6-2.4c-0.9-0.6-2-0.7-3-0.5c-2.6,0.3-4.6,2.4-6.2,4.2c-0.8,0.9-1.7,1.9-2.5,2.8c-0.9-0.6-1.7-1.2-2.7-1.7
			c-1.2-0.6-2.5-1.1-3.9-1c-1.3,0.1-2.6,0.6-3.5,1.5C-331.6,307.6-332,309.9-330.4,311.3z M-316.1,311.4c-0.2-0.3-0.1-0.7,0-0.9
			v-0.1c0.5,0.3,1,0.6,1.5,0.8C-315,311.5-315.8,311.9-316.1,311.4z M-315.8,309.5c0.3-0.6,0.7-1.1,1.1-1.6c0.9-1,2-2,3.2-2.7
			c1-0.6,2.2-1.1,3.3-0.8c1.3,0.4,1.4,2.1,1.2,3.2c-0.2,1.2-1,2.3-1.9,3.1c-1,0.8-2.2,1.2-3.5,1.1c-0.7-0.1-1.5-0.3-2.2-0.6
			c0.6-0.4,1-0.9,1.5-1.4c0,0,0-0.1,0,0c-0.4,0.5-0.9,1-1.4,1.4c0,0,0,0-0.1,0c-0.5-0.2-1-0.5-1.5-0.8l0,0
			C-316,310-315.9,309.8-315.8,309.5z M-328.6,305.2c2.9-1.3,5.9,0.4,8.2,2c0.1,0.1,0.2,0.1,0.3,0.2c-1.1,1.2-2.2,2.3-3.5,3.3
			c-1.1,0.8-2.4,1.4-3.8,1.5c-1.3,0-2.7-0.4-3.4-1.5c-0.6-0.9-0.6-2-0.2-3C-330.7,306.6-329.8,305.7-328.6,305.2z"/>
		<path class="st0" d="M-336.5,306.9c0.9,0.9,2.2,1.5,3.5,1.5c1.4,0.1,2.7-0.4,3.9-1c0.9-0.5,1.8-1.1,2.7-1.7
			c0.8,0.9,1.7,1.9,2.5,2.8c1.7,1.8,3.7,3.9,6.2,4.2c1,0.1,2.1,0,3-0.5c0.9-0.6,1.4-1.4,1.6-2.4l0,0c-0.2,0.9-0.8,1.8-1.6,2.3
			c-0.8,0.5-1.7,0.6-2.7,0.5c-2.6-0.3-4.7-2.4-6.4-4.3c-0.8-0.9-1.6-1.8-2.5-2.7c0.2-0.1,0.4-0.3,0.6-0.5c1-0.8,2-1.6,3.2-2.3
			c0.1,0.2,0.2,0.5,0.2,0.6c0.3,0.7,0.8,1.4,1.3,2c0.8,1.1,1.8,2.1,3,2.8c1,0.6,2.1,1.1,3.3,0.9c1.2-0.2,1.8-1.2,1.8-2.3
			c0-1.2-0.4-2.3-1.1-3.3c-0.7-0.9-1.6-1.6-2.6-2c-1.2-0.4-2.3-0.3-3.5,0.1c-0.2,0.1-0.5,0.2-0.7,0.3c-0.1-0.1-0.2-0.1-0.3-0.2
			c-0.3-0.2-1.1-0.5-1.3-0.1c-0.2,0.3-0.2,0.7,0,1.1c-1.3,0.8-2.5,1.8-3.8,2.8c-0.1-0.1-0.3-0.3-0.4-0.4c-1-1-2-2-3.2-2.8
			c-1.1-0.8-2.2-1.3-3.5-1.4c-1.2-0.1-2.5,0.2-3.4,1C-338.2,303.2-337.9,305.5-336.5,306.9z M-320.9,301.9c-0.5,0.2-1,0.5-1.5,0.8
			v-0.1c-0.1-0.3-0.1-0.7,0-0.9C-322.1,301.2-321.3,301.6-320.9,301.9z M-322.4,302.8L-322.4,302.8c0.5-0.3,1-0.6,1.6-0.9
			c0,0,0,0,0.1,0c0.6,0.4,1,0.9,1.4,1.4c0,0,0.1,0,0,0c-0.4-0.5-0.9-1.1-1.5-1.4c0.7-0.3,1.4-0.6,2.2-0.6c1.3-0.1,2.5,0.3,3.5,1.1
			c1,0.8,1.7,1.9,1.9,3.1c0.2,1.1,0.1,2.8-1.2,3.2c-1.1,0.3-2.4-0.2-3.3-0.8c-1.2-0.7-2.2-1.7-3.2-2.7c-0.4-0.5-0.8-1-1.1-1.6
			C-322.2,303.3-322.3,303.1-322.4,302.8z M-337.4,305.4c-0.4-1-0.4-2.1,0.2-3c0.8-1.1,2.2-1.5,3.4-1.5c1.4,0,2.7,0.6,3.8,1.5
			c1.3,1,2.4,2.1,3.5,3.3c-0.1,0.1-0.2,0.1-0.3,0.2c-2.3,1.7-5.3,3.3-8.2,2C-336.1,307.4-337,306.6-337.4,305.4z"/>
	</g>
	<g>
		<path class="st0" d="M-289.4,301.8c-0.9-0.8-2.2-1.1-3.4-1c-1.3,0.1-2.5,0.7-3.5,1.4c-1.2,0.9-2.3,1.9-3.2,2.9
			c-0.1,0.1-0.3,0.3-0.4,0.4c-1.2-0.9-2.5-1.9-3.8-2.8c0.1-0.4,0.2-0.8,0-1.1c-0.3-0.4-1-0.1-1.3,0.1c-0.1,0-0.2,0.1-0.3,0.2
			c-0.2-0.1-0.5-0.2-0.7-0.3c-1.1-0.4-2.3-0.5-3.5-0.1c-1.1,0.4-2,1.1-2.6,2c-0.7,0.9-1.1,2.1-1.1,3.3c0,1.2,0.6,2.2,1.8,2.3
			c1.1,0.2,2.3-0.3,3.3-0.9c1.2-0.7,2.2-1.7,3-2.8c0.5-0.6,0.9-1.3,1.3-2c0.1-0.2,0.2-0.4,0.2-0.6c1.1,0.7,2.1,1.5,3.2,2.3
			c0.2,0.2,0.4,0.3,0.6,0.5c-0.8,0.9-1.6,1.8-2.5,2.7c-1.7,1.8-3.8,4-6.4,4.3c-0.9,0.1-1.9,0-2.7-0.5c-0.9-0.5-1.4-1.4-1.6-2.3l0,0
			c0.2,1,0.7,1.9,1.6,2.4c0.9,0.6,2,0.7,3,0.5c2.6-0.3,4.6-2.4,6.2-4.2c0.8-0.9,1.7-1.9,2.5-2.8c0.9,0.6,1.7,1.2,2.7,1.7
			c1.2,0.6,2.5,1.1,3.9,1c1.3-0.1,2.6-0.6,3.5-1.5C-288.3,305.5-287.9,303.2-289.4,301.8z M-303.8,301.7c0.2,0.3,0.1,0.7,0,0.9v0.1
			c-0.5-0.3-1-0.6-1.5-0.8C-304.9,301.6-304.1,301.2-303.8,301.7z M-304.1,303.6c-0.3,0.6-0.7,1.1-1.1,1.6c-0.9,1-2,2-3.2,2.7
			c-1,0.6-2.2,1.1-3.3,0.8c-1.3-0.4-1.4-2.1-1.2-3.2c0.2-1.2,1-2.3,1.9-3.1c1-0.8,2.2-1.2,3.5-1.1c0.7,0.1,1.5,0.3,2.2,0.6
			c-0.6,0.4-1,0.9-1.5,1.4c0,0,0,0.1,0,0c0.4-0.5,0.9-1,1.4-1.4c0,0,0,0,0.1,0c0.5,0.2,1,0.5,1.5,0.8l0,0
			C-303.8,303.1-304,303.3-304.1,303.6z M-291.2,307.9c-2.9,1.3-5.9-0.4-8.2-2c-0.1-0.1-0.2-0.1-0.3-0.2c1.1-1.2,2.2-2.3,3.5-3.3
			c1.1-0.8,2.4-1.4,3.8-1.5c1.3,0,2.7,0.4,3.4,1.5c0.6,0.9,0.6,2,0.2,3C-289.2,306.6-290.1,307.4-291.2,307.9z"/>
		<path class="st0" d="M-283.4,306.2c-0.9-0.9-2.2-1.5-3.5-1.5c-1.4-0.1-2.7,0.4-3.9,1c-0.9,0.5-1.8,1.1-2.7,1.7
			c-0.8-0.9-1.7-1.9-2.5-2.8c-1.7-1.8-3.7-3.9-6.2-4.2c-1-0.1-2.1,0-3,0.5c-0.9,0.6-1.4,1.4-1.6,2.4l0,0c0.2-0.9,0.8-1.8,1.6-2.3
			c0.8-0.5,1.7-0.6,2.7-0.5c2.6,0.3,4.7,2.4,6.4,4.3c0.8,0.9,1.6,1.8,2.5,2.7c-0.2,0.1-0.4,0.3-0.6,0.5c-1,0.8-2,1.6-3.2,2.3
			c-0.1-0.2-0.2-0.5-0.2-0.6c-0.3-0.7-0.8-1.4-1.3-2c-0.8-1.1-1.8-2.1-3-2.8c-1-0.6-2.1-1.1-3.3-0.9c-1.2,0.2-1.8,1.2-1.8,2.3
			c0,1.2,0.4,2.3,1.1,3.3c0.7,0.9,1.6,1.6,2.6,2c1.2,0.4,2.3,0.3,3.5-0.1c0.2-0.1,0.5-0.2,0.7-0.3c0.1,0.1,0.2,0.1,0.3,0.2
			c0.3,0.2,1.1,0.5,1.3,0.1c0.2-0.3,0.2-0.7,0-1.1c1.3-0.8,2.5-1.8,3.8-2.8c0.1,0.1,0.3,0.3,0.4,0.4c1,1,2,2,3.2,2.8
			c1.1,0.8,2.2,1.3,3.5,1.4c1.2,0.1,2.5-0.2,3.4-1C-281.6,309.9-282,307.6-283.4,306.2z M-299,311.2c0.5-0.2,1-0.5,1.5-0.8v0.1
			c0.1,0.3,0.1,0.7,0,0.9C-297.8,311.9-298.6,311.5-299,311.2z M-297.5,310.3L-297.5,310.3c-0.5,0.3-1,0.6-1.6,0.9c0,0,0,0-0.1,0
			c-0.6-0.4-1-0.9-1.4-1.4c0,0-0.1,0,0,0c0.4,0.5,0.9,1.1,1.5,1.4c-0.7,0.3-1.4,0.6-2.2,0.6c-1.3,0.1-2.5-0.3-3.5-1.1
			c-1-0.8-1.7-1.9-1.9-3.1c-0.2-1.1-0.1-2.8,1.2-3.2c1.1-0.3,2.4,0.2,3.3,0.8c1.2,0.7,2.2,1.7,3.2,2.7c0.4,0.5,0.8,1,1.1,1.6
			C-297.7,309.8-297.5,310-297.5,310.3z M-282.4,307.7c0.4,1,0.4,2.1-0.2,3c-0.8,1.1-2.2,1.5-3.4,1.5c-1.4,0-2.7-0.6-3.8-1.5
			c-1.3-1-2.4-2.1-3.5-3.3c0.1-0.1,0.2-0.1,0.3-0.2c2.3-1.7,5.3-3.3,8.2-2C-283.8,305.7-282.9,306.6-282.4,307.7z"/>
	</g>
</g>
<text transform="matrix(1 0 0 1 -319.0234 326.3305)" class="st1 st2 st3">450</text>
<text transform="matrix(1 0 0 1 -319.4919 329.7236)" class="st1 st2 st4">5 литров</text>
<text transform="matrix(1 0 0 1 -299.9651 327.5282)" class="st1 st5 st6">р.</text>
<text transform="matrix(1 0 0 1 -335.7825 293.6653)" class="st1 st7 st8">ВОДКА</text>
</svg>
